<?xml version="1.0" encoding="UTF-8"?>
<svg version="1.1" xmlns="http://www.w3.org/2000/svg" width="512" height="512">
<path d="M0 0 C4.6083588 2.1829068 6.75414788 4.48680142 9 9 C9.37719816 11.99936336 9.37719816 11.99936336 9.38031673 15.40814114 C9.38875668 16.71021934 9.39719662 18.01229754 9.40589231 19.35383266 C9.40009717 20.79704171 9.39401615 22.24024964 9.38768005 23.68345642 C9.39185249 25.21792525 9.39732951 26.75239099 9.40399987 28.28685099 C9.41848508 32.50541734 9.41420019 36.72378884 9.40683305 40.942366 C9.40211128 45.49119309 9.41460243 50.03997742 9.42485046 54.58879089 C9.44206318 63.50097422 9.44287337 72.41308711 9.43763756 81.32528275 C9.43359929 88.56768299 9.43503534 95.81006238 9.44038582 103.05246162 C9.44113424 104.08248622 9.44188266 105.11251081 9.44265376 106.17374827 C9.44418521 108.26611022 9.44572356 110.35847216 9.44726873 112.4508341 C9.46100268 132.08092141 9.45554976 151.71096888 9.44408352 171.34105528 C9.4341498 189.30720065 9.44709263 207.27324306 9.47101771 225.23937254 C9.49538883 243.67911289 9.5050215 262.11880525 9.49836498 280.55856138 C9.49486839 290.91425893 9.49713384 301.26987727 9.51461601 311.62556267 C9.52931314 320.44099437 9.53000607 329.25629108 9.5125451 338.07172006 C9.50401223 342.57069968 9.50194114 347.0694379 9.51719666 351.56840515 C9.53098587 355.68586921 9.52635545 359.80288374 9.50695742 363.92032141 C9.5031793 365.41084624 9.50617132 366.90140659 9.51656907 368.39189994 C9.52969033 370.41657037 9.5158014 372.44136205 9.50057125 374.46601772 C9.50046391 375.59107674 9.50035658 376.71613576 9.50024599 377.87528747 C8.72808212 382.69849477 6.4487517 385.8951796 2.59765625 388.83203125 C-2.27702843 391.02380677 -6.78918375 390.94339201 -12 390 C-15.73136567 388.232511 -18.88602987 385.89337333 -22.15625 383.38671875 C-25.03248652 381.22344764 -27.99805252 379.19185876 -30.95507812 377.14111328 C-33.54971144 375.34050148 -36.13528271 373.52752798 -38.71875 371.7109375 C-43.80784506 368.13395573 -48.90318327 364.56596717 -54 361 C-55.66669728 359.83337706 -57.3333639 358.66671033 -59 357.5 C-60.2375 356.63375 -60.2375 356.63375 -61.5 355.75 C-77.33333333 344.66666667 -93.16666667 333.58333333 -109 322.5 C-109.8252417 321.92233887 -110.6504834 321.34467773 -111.50073242 320.74951172 C-113.16498828 319.58451636 -114.82921361 318.4194774 -116.4934082 317.25439453 C-120.69670923 314.31179589 -124.90056181 311.36999096 -129.10546875 308.4296875 C-129.95689453 307.83414062 -130.80832031 307.23859375 -131.68554688 306.625 C-133.26086054 305.52314126 -134.83635555 304.42154169 -136.41210938 303.3203125 C-137.15654297 302.79953125 -137.90097656 302.27875 -138.66796875 301.7421875 C-139.4399057 301.21914032 -140.21184265 300.69609314 -141.00717163 300.15719604 C-143.27719044 298.52099276 -145.35942182 296.86373705 -147.48098755 295.05349731 C-158.98228779 285.60802007 -168.0133249 284.34291947 -182.57421875 284.75 C-184.59818989 284.76013071 -186.62219844 284.76432945 -188.64619446 284.76293945 C-193.92067138 284.77232928 -199.19174424 284.84953091 -204.465271 284.94561768 C-212.94015336 285.08865028 -221.41605731 285.12807513 -229.89194679 285.16442871 C-232.83852197 285.1871287 -235.78334458 285.24008076 -238.72941589 285.29785156 C-240.53404039 285.31770888 -242.33867183 285.33694813 -244.14331055 285.35546875 C-244.95529907 285.37935165 -245.7672876 285.40323456 -246.60388184 285.42784119 C-251.8677369 285.45166112 -254.88436487 284.57863486 -259 281 C-261.92925121 277.02913094 -262.37762566 274.1808235 -262.38768005 269.28895569 C-262.39306559 268.62738148 -262.39845113 267.96580727 -262.40399987 267.28418535 C-262.41826924 265.07476388 -262.41117864 262.86594242 -262.40405273 260.65649414 C-262.40975687 259.06944803 -262.41672129 257.48240602 -262.42485046 255.89537048 C-262.44279243 251.58955673 -262.44161155 247.28394665 -262.43590808 242.97810674 C-262.43281769 239.3821365 -262.43890702 235.78620546 -262.44494683 232.1902408 C-262.45899388 223.70630249 -262.4574293 215.22246487 -262.44604492 206.73852539 C-262.43456347 197.98894733 -262.44863936 189.23967578 -262.4754414 180.49013811 C-262.49759967 172.97490947 -262.50423549 165.45977702 -262.49836498 157.94451803 C-262.4949945 153.45736854 -262.49741647 148.97041553 -262.51461601 144.48329353 C-262.53008514 140.26344273 -262.5261302 136.0440459 -262.50731087 131.82421303 C-262.50362486 130.27706234 -262.50673386 128.72987803 -262.51719666 127.18275833 C-262.53040869 125.067326 -262.51885992 122.95339619 -262.50120544 120.83802795 C-262.50099616 119.6554091 -262.50078688 118.47279024 -262.50057125 117.25433445 C-261.75693105 112.41975011 -259.49844577 109.26474293 -255.79644775 106.14012146 C-251.94173863 104.56854316 -248.34593832 104.65634031 -244.25683594 104.75805664 C-243.38608429 104.7671405 -242.51533264 104.77622437 -241.61819458 104.7855835 C-239.72970104 104.80590182 -237.84126619 104.83240919 -235.95293427 104.86439705 C-232.94841873 104.9107105 -229.94484276 104.93060771 -226.94000244 104.94200134 C-218.39741651 104.97494667 -209.85594539 105.02119134 -201.31445312 105.16772461 C-196.08203214 105.25555102 -190.85207591 105.28328755 -185.61896515 105.27389336 C-183.63997459 105.2812994 -181.66092758 105.31014275 -179.68260956 105.36226082 C-165.21425923 105.73087451 -156.73079053 102.83827168 -145.67673683 93.40693092 C-143.4446201 91.533987 -141.07871103 89.89132308 -138.66796875 88.2578125 C-137.55131836 87.47664063 -137.55131836 87.47664063 -136.41210938 86.6796875 C-135.67798828 86.16664063 -134.94386719 85.65359375 -134.1875 85.125 C-132.4934829 83.94011372 -130.79947269 82.7552176 -129.10546875 81.5703125 C-128.26161621 80.98024414 -127.41776367 80.39017578 -126.54833984 79.78222656 C-122.3645694 76.85623267 -118.18235476 73.9280169 -114 71 C-112.33334098 69.83332241 -110.66667431 68.66665575 -109 67.5 C-108.175 66.9225 -107.35 66.345 -106.5 65.75 C-90.66666667 54.66666667 -74.83333333 43.58333333 -59 32.5 C-58.17435547 31.9220166 -57.34871094 31.3440332 -56.49804688 30.74853516 C-54.83801305 29.58657638 -53.17785757 28.42479138 -51.51757812 27.26318359 C-46.37132329 23.66222013 -41.22974838 20.05469575 -36.09179688 16.44189453 C-33.56679621 14.6718253 -31.03389752 12.91354926 -28.5 11.15625 C-25.78815533 9.27151796 -23.12093101 7.35271835 -20.5 5.34375 C-13.7461381 0.34870631 -8.43405584 -1.68681117 0 0 Z " fill="#7D6ADF" transform="translate(262,61)"/>
<path d="M0 0 C55.77 0 111.54 0 169 0 C169.16121214 46.40222673 169.16121214 46.40222673 169.1953125 65.82421875 C169.21906115 79.24273787 169.24700279 92.66115664 169.30175781 106.07958984 C169.34161394 115.85150711 169.36743008 125.62334308 169.37635398 135.39533937 C169.38157077 140.57005461 169.39384013 145.74453727 169.42292023 150.91917801 C169.45006987 155.78976712 169.45844586 160.66002783 169.45243073 165.53068542 C169.45353116 167.31812194 169.46148772 169.10556944 169.4768219 170.89294052 C169.49674314 173.33476106 169.49193197 175.77534404 169.48101807 178.2171936 C169.49266943 178.92343294 169.5043208 179.62967227 169.51632524 180.3573128 C169.45613905 185.34392296 168.10576074 188.15006698 165 192 C160.52612133 195.41178715 156.7203274 195.76221071 151.21484375 195.58203125 C145.81203771 194.60388046 142.13782191 191.67816538 137.84375 188.38671875 C134.96751348 186.22344764 132.00194748 184.19185876 129.04492188 182.14111328 C126.45028856 180.34050148 123.86471729 178.52752798 121.28125 176.7109375 C116.19215494 173.13395573 111.09681673 169.56596717 106 166 C104.33330272 164.83337706 102.6666361 163.66671033 101 162.5 C100.175 161.9225 99.35 161.345 98.5 160.75 C51 127.5 51 127.5 48.49902344 125.74926758 C46.83567317 124.58495489 45.17226191 123.42072935 43.50878906 122.2565918 C39.29087191 119.30462804 35.07409128 116.35106366 30.859375 113.39453125 C30.0034375 112.79447266 29.1475 112.19441406 28.265625 111.57617188 C26.67667076 110.46217678 25.08808038 109.34766235 23.5 108.23242188 C22.75234375 107.70841797 22.0046875 107.18441406 21.234375 106.64453125 C20.49370789 106.10124176 19.75304077 105.55795227 18.9899292 104.99819946 C16.67593444 103.45173372 14.51338158 102.22214426 12.04376221 100.98312378 C1.34053184 95.24944263 1.34053184 95.24944263 -0.89722443 89.82513237 C-2.25705446 83.54892716 -1.83985764 77.17369428 -1.5625 70.80078125 C-1.5389326 68.98522812 -1.52263605 67.1695658 -1.51367188 65.35388184 C-1.43027375 58.67174772 -1.20688414 51.99195137 -1 45.3125 C-0.67 30.359375 -0.34 15.40625 0 0 Z " fill="#6D5ACB" transform="translate(102,256)"/>
<path d="M0 0 C0.91252376 -0.0003616 1.82504751 -0.00072321 2.7652235 -0.00109577 C5.71048837 0.0011382 8.65517921 0.0239601 11.6003418 0.04760742 C13.42207566 0.05201987 15.24381333 0.05507942 17.06555176 0.0567627 C23.81027947 0.07247279 30.55492568 0.11435657 37.29956055 0.15307617 C59.91487305 0.24588867 59.91487305 0.24588867 82.98706055 0.34057617 C82.98706055 59.74057617 82.98706055 119.14057617 82.98706055 180.34057617 C60.40268555 180.46432617 60.40268555 180.46432617 37.36206055 180.59057617 C32.6136377 180.62699219 27.86521484 180.6634082 22.97290039 180.70092773 C17.16015625 180.71899414 17.16015625 180.71899414 14.43618774 180.72235107 C12.53974654 180.72848056 10.64332062 180.74252244 8.74697876 180.76287842 C5.86888685 180.7922199 2.99174479 180.79619826 0.11352539 180.79467773 C-0.7267753 180.80907017 -1.567076 180.8234626 -2.43284035 180.83829117 C-7.75055441 180.80076226 -10.86005213 179.96508501 -15.01293945 176.34057617 C-17.94134487 172.36899007 -18.39056455 169.52167225 -18.40061951 164.62953186 C-18.40600504 163.96795765 -18.41139058 163.30638344 -18.41693932 162.62476152 C-18.4312087 160.41534005 -18.42411809 158.20651859 -18.41699219 155.99707031 C-18.42269632 154.4100242 -18.42966075 152.8229822 -18.43778992 151.23594666 C-18.45573188 146.9301329 -18.454551 142.62452282 -18.44884753 138.31868291 C-18.44575715 134.72271267 -18.45184647 131.12678163 -18.45788628 127.53081697 C-18.47193333 119.04687866 -18.47036875 110.56304105 -18.45898438 102.07910156 C-18.44750292 93.3295235 -18.46157881 84.58025195 -18.48838085 75.83071429 C-18.51053912 68.31548564 -18.51717495 60.8003532 -18.51130444 53.2850942 C-18.50793396 48.79794471 -18.51035593 44.3109917 -18.52755547 39.82386971 C-18.54302459 35.6040189 -18.53906965 31.38462207 -18.52025032 27.1647892 C-18.51656431 25.61763852 -18.51967332 24.0704542 -18.53013611 22.5233345 C-18.54334814 20.40790217 -18.53179937 18.29397236 -18.5141449 16.17860413 C-18.51393561 14.99598527 -18.51372633 13.81336641 -18.5135107 12.59491062 C-17.77113024 7.76851614 -15.51542883 4.61427475 -11.82624817 1.48686218 C-7.83976989 -0.13743317 -4.26526232 -0.05455705 0 0 Z " fill="#7E6BE0" transform="translate(18.012939453125,165.659423828125)"/>
<path d="M0 0 C0.89805862 -0.00043808 1.79611725 -0.00087616 2.72138977 -0.00132751 C5.6812638 0.0007577 8.64056706 0.02407634 11.6003418 0.04760742 C13.65585521 0.05320432 15.71137263 0.05747398 17.76689148 0.06047058 C23.17073664 0.07191193 28.57433899 0.10137317 33.97808838 0.13458252 C40.46504957 0.17070132 46.95209205 0.18444792 53.43912506 0.20194244 C63.28860564 0.23101076 73.1375537 0.2885032 82.98706055 0.34057617 C82.98706055 30.04057617 82.98706055 59.74057617 82.98706055 90.34057617 C49.65706055 90.34057617 16.32706055 90.34057617 -18.01293945 90.34057617 C-18.09543945 77.09932617 -18.17793945 63.85807617 -18.26293945 50.21557617 C-18.29935547 46.04143066 -18.33577148 41.86728516 -18.37329102 37.56665039 C-18.39135742 32.45214844 -18.39135742 32.45214844 -18.39471436 30.05447388 C-18.40083901 28.38719407 -18.41487091 26.7199315 -18.4352417 25.05276489 C-18.46462299 22.52062412 -18.4685603 19.98956169 -18.46704102 17.45727539 C-18.48143345 16.72002668 -18.49582588 15.98277798 -18.51065445 15.2231884 C-18.46977263 10.1156651 -17.31456525 7.21473491 -14.01293945 3.34057617 C-9.67145218 -0.33981335 -5.42197769 -0.06943025 0 0 Z " fill="#988EE1" transform="translate(18.012939453125,165.659423828125)"/>
<path d="M0 0 C4.58791231 2.17322162 6.85753729 4.44411957 9 9 C9.43291253 11.99785531 9.40919045 14.96408124 9.38768005 17.98887634 C9.39306559 18.8954637 9.39845113 19.80205105 9.40399987 20.73611075 C9.41831006 23.77465127 9.4111681 26.81275802 9.40405273 29.85131836 C9.40975469 32.02948864 9.41671826 34.20765592 9.42485046 36.38581848 C9.4428161 42.30313489 9.44160707 48.22030329 9.43590808 54.13763881 C9.4328212 59.07568228 9.43890309 64.01369711 9.44494683 68.95173651 C9.45900159 80.59992857 9.45742278 92.24804731 9.44604492 103.89624023 C9.43456203 115.91769146 9.44864017 127.93888539 9.4754414 139.96031088 C9.49758407 150.27805814 9.50423902 160.59573532 9.49836498 170.91350466 C9.49499088 177.07737446 9.49744072 183.24110125 9.51461601 189.4049511 C9.53006016 195.2006489 9.52615747 200.99601576 9.50731087 206.79170036 C9.50361803 208.91937191 9.5067536 211.04706783 9.51719666 213.17471695 C9.53036039 216.07824155 9.5188997 218.98066313 9.50120544 221.88414001 C9.51081045 222.72704289 9.52041546 223.56994576 9.53031152 224.43839115 C9.46356761 229.75772911 8.51663953 232.77187821 5 237 C-0.22259857 241.05630398 -5.65340142 240.77397544 -12 240 C-16.58791231 237.82677838 -18.85753729 235.55588043 -21 231 C-21.43291253 228.00214469 -21.40919045 225.03591876 -21.38768005 222.01112366 C-21.39306559 221.1045363 -21.39845113 220.19794895 -21.40399987 219.26388925 C-21.41831006 216.22534873 -21.4111681 213.18724198 -21.40405273 210.14868164 C-21.40975469 207.97051136 -21.41671826 205.79234408 -21.42485046 203.61418152 C-21.4428161 197.69686511 -21.44160707 191.77969671 -21.43590808 185.86236119 C-21.4328212 180.92431772 -21.43890309 175.98630289 -21.44494683 171.04826349 C-21.45900159 159.40007143 -21.45742278 147.75195269 -21.44604492 136.10375977 C-21.43456203 124.08230854 -21.44864017 112.06111461 -21.4754414 100.03968912 C-21.49758407 89.72194186 -21.50423902 79.40426468 -21.49836498 69.08649534 C-21.49499088 62.92262554 -21.49744072 56.75889875 -21.51461601 50.5950489 C-21.53006016 44.7993511 -21.52615747 39.00398424 -21.50731087 33.20829964 C-21.50361803 31.08062809 -21.5067536 28.95293217 -21.51719666 26.82528305 C-21.53036039 23.92175845 -21.5188997 21.01933687 -21.50120544 18.11585999 C-21.51081045 17.27295711 -21.52041546 16.43005424 -21.53031152 15.56160885 C-21.46356761 10.24227089 -20.51663953 7.22812179 -17 3 C-11.77740143 -1.05630398 -6.34659858 -0.77397544 0 0 Z " fill="#FC9D00" transform="translate(382,136)"/>
<path d="M0 0 C4.60550436 2.1815547 6.76632545 4.48195513 9 9 C9.38031673 12.12849331 9.38031673 12.12849331 9.38768005 15.71104431 C9.39306559 16.37261852 9.39845113 17.03419273 9.40399987 17.71581465 C9.41826924 19.92523612 9.41117864 22.13405758 9.40405273 24.34350586 C9.40975687 25.93055197 9.41672129 27.51759398 9.42485046 29.10462952 C9.44279243 33.41044327 9.44161155 37.71605335 9.43590808 42.02189326 C9.43281769 45.6178635 9.43890702 49.21379454 9.44494683 52.8097592 C9.45899388 61.29369751 9.4574293 69.77753513 9.44604492 78.26147461 C9.43456347 87.01105267 9.44863936 95.76032422 9.4754414 104.50986189 C9.49759967 112.02509053 9.50423549 119.54022298 9.49836498 127.05548197 C9.4949945 131.54263146 9.49741647 136.02958447 9.51461601 140.51670647 C9.53008514 144.73655727 9.5261302 148.9559541 9.50731087 153.17578697 C9.50362486 154.72293766 9.50673386 156.27012197 9.51719666 157.81724167 C9.53040869 159.932674 9.51885992 162.04660381 9.50120544 164.16197205 C9.50099616 165.3445909 9.50078688 166.52720976 9.50057125 167.74566555 C8.74668766 172.64684463 6.50543663 175.83075283 2.62109375 178.84765625 C-2.12829103 180.93568681 -6.92248151 180.61920957 -12 180 C-16.60550436 177.8184453 -18.76632545 175.51804487 -21 171 C-21.38031673 167.87150669 -21.38031673 167.87150669 -21.38768005 164.28895569 C-21.39306559 163.62738148 -21.39845113 162.96580727 -21.40399987 162.28418535 C-21.41826924 160.07476388 -21.41117864 157.86594242 -21.40405273 155.65649414 C-21.40975687 154.06944803 -21.41672129 152.48240602 -21.42485046 150.89537048 C-21.44279243 146.58955673 -21.44161155 142.28394665 -21.43590808 137.97810674 C-21.43281769 134.3821365 -21.43890702 130.78620546 -21.44494683 127.1902408 C-21.45899388 118.70630249 -21.4574293 110.22246487 -21.44604492 101.73852539 C-21.43456347 92.98894733 -21.44863936 84.23967578 -21.4754414 75.49013811 C-21.49759967 67.97490947 -21.50423549 60.45977702 -21.49836498 52.94451803 C-21.4949945 48.45736854 -21.49741647 43.97041553 -21.51461601 39.48329353 C-21.53008514 35.26344273 -21.5261302 31.0440459 -21.50731087 26.82421303 C-21.50362486 25.27706234 -21.50673386 23.72987803 -21.51719666 22.18275833 C-21.53040869 20.067326 -21.51885992 17.95339619 -21.50120544 15.83802795 C-21.50099616 14.6554091 -21.50078688 13.47279024 -21.50057125 12.25433445 C-20.74668766 7.35315537 -18.50543663 4.16924717 -14.62109375 1.15234375 C-9.87170897 -0.93568681 -5.07751849 -0.61920957 0 0 Z " fill="#FC9D00" transform="translate(503,166)"/>
<path d="M0 0 C4.58001329 2.16947998 6.92621104 4.41325454 9 9 C9.43060699 12.58648582 9.37873213 16.14888337 9.34057617 19.75708008 C9.34123329 21.38214478 9.34123329 21.38214478 9.34190369 23.04003906 C9.33981566 26.61672053 9.31648319 30.19293178 9.29296875 33.76953125 C9.28737287 36.25102991 9.28310273 38.73253188 9.28010559 41.21403503 C9.26865631 47.74235194 9.23918808 54.27046832 9.20599365 60.79870605 C9.17367254 67.4614687 9.16160061 74.12428968 9.14648438 80.78710938 C9.11431871 93.85817515 9.06154976 106.92903952 9 120 C-0.9 120 -10.8 120 -21 120 C-21.09035775 105.63103189 -21.16374911 91.26225238 -21.20724869 76.8930645 C-21.228126 70.22090676 -21.25644684 63.54899315 -21.30175781 56.87695312 C-21.3452094 50.43843704 -21.36913605 44.00011761 -21.37950897 37.56146622 C-21.38690148 35.10465524 -21.40133718 32.64785507 -21.42292023 30.19112778 C-21.45194397 26.7507168 -21.45595628 23.31111911 -21.45410156 19.87060547 C-21.46848267 18.85424515 -21.48286377 17.83788483 -21.49768066 16.79072571 C-21.46310559 10.86613528 -20.93335798 7.51913268 -17 3 C-11.77740143 -1.05630398 -6.34659858 -0.77397544 0 0 Z " fill="#ECB600" transform="translate(382,136)"/>
<path d="M0 0 C4.58459218 2.17164893 6.88771547 4.43021121 9 9 C9.44246148 12.27862023 9.42011027 15.53128944 9.40405273 18.83569336 C9.41091599 19.82164993 9.41777924 20.80760651 9.42485046 21.82344055 C9.44313528 25.07905523 9.43927845 28.33418879 9.43359375 31.58984375 C9.43815474 33.8551906 9.44346007 36.12053607 9.44947815 38.38587952 C9.45841258 43.13287987 9.45598225 47.87971201 9.44604492 52.62670898 C9.43455517 58.70763393 9.45476565 64.7879782 9.48396206 70.86882687 C9.50231487 75.54687687 9.50203338 80.22478749 9.49632454 84.90286446 C9.49617121 87.14473854 9.50222494 89.386622 9.51461601 91.62846184 C9.52950627 94.764315 9.51886261 97.89909243 9.50170898 101.03491211 C9.51137695 101.95926056 9.52104492 102.88360901 9.53100586 103.83596802 C9.46748374 109.38626578 8.72870683 112.61030967 5 117 C-0.22259857 121.05630398 -5.65340142 120.77397544 -12 120 C-16.58459218 117.82835107 -18.88771547 115.56978879 -21 111 C-21.44246148 107.72137977 -21.42011027 104.46871056 -21.40405273 101.16430664 C-21.41091599 100.17835007 -21.41777924 99.19239349 -21.42485046 98.17655945 C-21.44313528 94.92094477 -21.43927845 91.66581121 -21.43359375 88.41015625 C-21.43815474 86.1448094 -21.44346007 83.87946393 -21.44947815 81.61412048 C-21.45841258 76.86712013 -21.45598225 72.12028799 -21.44604492 67.37329102 C-21.43455517 61.29236607 -21.45476565 55.2120218 -21.48396206 49.13117313 C-21.50231487 44.45312313 -21.50203338 39.77521251 -21.49632454 35.09713554 C-21.49617121 32.85526146 -21.50222494 30.613378 -21.51461601 28.37153816 C-21.52950627 25.235685 -21.51886261 22.10090757 -21.50170898 18.96508789 C-21.51137695 18.04073944 -21.52104492 17.11639099 -21.53100586 16.16403198 C-21.46748374 10.61373422 -20.72870683 7.38969033 -17 3 C-11.77740143 -1.05630398 -6.34659858 -0.77397544 0 0 Z " fill="#FC9D00" transform="translate(442,196)"/>
<path d="M0 0 C4.5925492 2.17541804 6.82339125 4.45950899 9 9 C9.26967159 11.748077 9.3805791 14.26073218 9.34057617 17.00317383 C9.34123329 18.18932785 9.34123329 18.18932785 9.34190369 19.39944458 C9.33982069 22.00222832 9.31651314 24.60436062 9.29296875 27.20703125 C9.28737105 29.01592151 9.28310177 30.82481633 9.28010559 32.63371277 C9.26867053 37.38655227 9.23921488 42.13911521 9.20599365 46.8918457 C9.17526389 51.74491637 9.16159404 56.59803188 9.14648438 61.45117188 C9.11434383 70.96758876 9.06158684 80.48372807 9 90 C-0.9 90 -10.8 90 -21 90 C-21.09043228 79.5425499 -21.16379164 69.08536025 -21.20724869 58.62760735 C-21.22810775 53.77144701 -21.2563947 48.91556848 -21.30175781 44.05957031 C-21.34527551 39.37168744 -21.36914976 34.68407532 -21.37950897 29.99600601 C-21.38688971 28.20904402 -21.40130271 26.42209656 -21.42292023 24.63525009 C-21.45203345 22.12874282 -21.45595277 19.62334885 -21.45410156 17.11669922 C-21.46848267 16.38086105 -21.48286377 15.64502289 -21.49768066 14.8868866 C-21.45703494 9.78797046 -20.1961097 6.9315397 -17 3 C-11.77740143 -1.05630398 -6.34659858 -0.77397544 0 0 Z " fill="#ECB600" transform="translate(503,166)"/>
<path d="M0 0 C4.60252929 2.18014545 6.78034191 4.47619002 9 9 C9.38768005 12.29429626 9.38768005 12.29429626 9.40405273 16.08178711 C9.41091599 16.77513657 9.41777924 17.46848602 9.42485046 18.18284607 C9.44308446 20.46455628 9.43928604 22.74557663 9.43359375 25.02734375 C9.43815731 26.62008385 9.44346341 28.21282197 9.44947815 29.80555725 C9.45840262 33.14022837 9.45599393 36.47465992 9.44604492 39.80932617 C9.43455775 44.0743197 9.45476552 48.33848497 9.48396206 52.60336971 C9.50234382 55.89174111 9.50202769 59.17991476 9.49632454 62.46832466 C9.49617156 64.04034143 9.50219697 65.6123718 9.51461601 67.18433952 C9.52956205 69.38635476 9.51882476 71.58684939 9.50170898 73.78881836 C9.50154282 75.03948593 9.50137665 76.2901535 9.50120544 77.57872009 C8.76742043 82.58761207 6.59050878 85.76467873 2.62109375 88.84765625 C-2.12829103 90.93568681 -6.92248151 90.61920957 -12 90 C-16.60252929 87.81985455 -18.78034191 85.52380998 -21 81 C-21.38768005 77.70570374 -21.38768005 77.70570374 -21.40405273 73.91821289 C-21.41091599 73.22486343 -21.41777924 72.53151398 -21.42485046 71.81715393 C-21.44308446 69.53544372 -21.43928604 67.25442337 -21.43359375 64.97265625 C-21.43815731 63.37991615 -21.44346341 61.78717803 -21.44947815 60.19444275 C-21.45840262 56.85977163 -21.45599393 53.52534008 -21.44604492 50.19067383 C-21.43455775 45.9256803 -21.45476552 41.66151503 -21.48396206 37.39663029 C-21.50234382 34.10825889 -21.50202769 30.82008524 -21.49632454 27.53167534 C-21.49617156 25.95965857 -21.50219697 24.3876282 -21.51461601 22.81566048 C-21.52956205 20.61364524 -21.51882476 18.41315061 -21.50170898 16.21118164 C-21.50154282 14.96051407 -21.50137665 13.7098465 -21.50120544 12.42127991 C-20.76742043 7.41238793 -18.59050878 4.23532127 -14.62109375 1.15234375 C-9.87170897 -0.93568681 -5.07751849 -0.61920957 0 0 Z " fill="#FC9D00" transform="translate(322,211)"/>
<path d="M0 0 C4.57779278 2.16842816 6.9607463 4.39700893 9 9 C9.41545499 12.88351148 9.34840557 16.74287869 9.29296875 20.64453125 C9.28872391 21.7694548 9.28447906 22.89437836 9.28010559 24.0533905 C9.2633369 27.64000562 9.22568688 31.22605521 9.1875 34.8125 C9.17245087 37.24673667 9.15876287 39.68098216 9.14648438 42.11523438 C9.11599351 48.07721514 9.05726597 54.03797586 9 60 C-0.9 60 -10.8 60 -21 60 C-21.0919139 52.84603482 -21.17153143 45.69412462 -21.21972656 38.54003906 C-21.23982071 36.10735119 -21.26710088 33.67471149 -21.30175781 31.2421875 C-21.3503706 27.74206645 -21.37299139 24.24258498 -21.390625 20.7421875 C-21.41127014 19.65759247 -21.43191528 18.57299744 -21.45318604 17.45553589 C-21.45500599 11.30756223 -21.1533116 7.65642508 -17 3 C-11.77740143 -1.05630398 -6.34659858 -0.77397544 0 0 Z " fill="#ECB600" transform="translate(442,196)"/>
<path d="M0 0 C4.58836415 2.17343565 6.84178624 4.45251438 9 9 C9.2521484 11.8669002 9.35108656 14.50447089 9.29296875 17.36328125 C9.28872391 18.15526413 9.28447906 18.94724701 9.28010559 19.76322937 C9.26338163 22.28000627 9.22574225 24.79596724 9.1875 27.3125 C9.17244499 29.02407693 9.15875801 30.73566649 9.14648438 32.44726562 C9.11605678 36.63207372 9.057327 40.81512915 9 45 C-0.9 45 -10.8 45 -21 45 C-21.09207371 39.98198272 -21.17163196 34.96692096 -21.21972656 29.94873047 C-21.23978369 28.24355106 -21.26703657 26.53843994 -21.30175781 24.83349609 C-21.35053861 22.37580476 -21.37302719 19.91902634 -21.390625 17.4609375 C-21.41127014 16.70444916 -21.43191528 15.94796082 -21.45318604 15.16854858 C-21.45535763 9.99124205 -20.38712955 7.12442681 -17 3 C-11.77740143 -1.05630398 -6.34659858 -0.77397544 0 0 Z " fill="#ECB600" transform="translate(322,211)"/>
</svg>
