<?xml version="1.0" encoding="UTF-8"?>
<svg version="1.1" xmlns="http://www.w3.org/2000/svg" width="512" height="512">
<path d="M0 0 C1.95742371 -0.02017905 3.91483201 -0.04190338 5.8722229 -0.06504822 C11.16790388 -0.12154395 16.46339718 -0.15165145 21.75932479 -0.17328572 C25.07453972 -0.18727679 28.38970334 -0.20567123 31.7048893 -0.22530937 C42.09687109 -0.28530442 52.4887303 -0.32857018 62.88086718 -0.34852701 C74.84195162 -0.37173531 86.8009485 -0.45069769 98.76136798 -0.57802969 C108.03140171 -0.67327782 117.30084688 -0.71812365 126.57136327 -0.72543138 C132.09740898 -0.73090573 137.62140914 -0.75720706 143.1469326 -0.83635139 C148.34941887 -0.90950614 153.54840327 -0.91959232 158.75123978 -0.88317299 C160.6494809 -0.88038494 162.54791328 -0.89942769 164.44565392 -0.94310379 C175.01030007 -1.17200265 182.01524949 -0.31888619 190.04975891 6.96754456 C191.77650676 8.64320323 193.45690583 10.34844428 195.11369479 12.09316266 C197.34979401 14.3718943 199.77303745 16.30592142 202.27661133 18.28540039 C209.04828908 23.77486697 215.675826 29.43127452 222.31762695 35.07641602 C228.77568059 40.56310553 235.26658749 45.99817168 241.83911133 51.34790039 C245.53175497 54.38407405 249.17282921 57.47890009 252.81567383 60.57446289 C256.23220673 63.47284862 259.6766597 66.33195139 263.15161133 69.16040039 C269.95574919 74.70232138 276.63137011 80.39348962 283.31762695 86.07641602 C289.77568059 91.56310553 296.26658749 96.99817168 302.83911133 102.34790039 C306.53175497 105.38407405 310.17282921 108.47890009 313.81567383 111.57446289 C317.23220673 114.47284862 320.6766597 117.33195139 324.15161133 120.16040039 C328.14454387 123.41261501 332.09815527 126.70596215 336.02661133 130.03540039 C336.56261963 130.48963379 337.09862793 130.94386719 337.65087891 131.41186523 C340.53652654 133.85995455 343.4174587 136.31350291 346.29614258 138.76977539 C347.1858374 139.52701904 347.1858374 139.52701904 348.09350586 140.29956055 C349.2352986 141.27144176 350.37565945 142.24500836 351.5144043 143.22045898 C354.40506945 145.69941486 354.40506945 145.69941486 357.65161133 147.66040039 C357.7805138 180.6615518 357.90804669 213.66270817 358.0337936 246.66387175 C358.04880518 250.60322574 358.06382786 254.54257968 358.07885742 258.48193359 C358.08184804 259.26584355 358.08483865 260.04975351 358.08791989 260.85741832 C358.13570679 273.37661916 358.18438294 285.89581638 358.23341674 298.4150124 C358.28410471 311.36188439 358.33377006 324.30876004 358.38257837 337.25563926 C358.4098595 344.48508869 358.43755098 351.71453596 358.46641541 358.94397926 C358.52519808 373.72232093 358.57726233 388.50064079 358.61518145 403.27905506 C358.63611797 411.25653751 358.66651437 419.23392339 358.70403805 427.21134505 C358.73280755 433.44079669 358.75392805 439.67024853 358.7699171 445.89974585 C358.77976168 449.62673877 358.79302112 453.35364274 358.81506443 457.08058512 C358.83928429 461.19250762 358.84757332 465.30431772 358.85461426 469.41630554 C358.86424037 470.62830624 358.87386648 471.84030693 358.88378429 473.08903491 C358.87805765 484.99948431 356.94773135 494.58064311 348.83129883 503.70727539 C339.8271937 512.23748025 330.1196847 513.25154621 318.15307617 513.16833496 C316.69963648 513.17295066 315.24620146 513.17930805 313.79277611 513.18724394 C309.8211932 513.20386881 305.8499971 513.19572235 301.8784132 513.18329906 C297.58657969 513.1742227 293.29481118 513.18823109 289.00299072 513.19921875 C280.60414638 513.21698101 272.20544522 513.21317422 263.80659533 513.20156819 C256.97910419 513.19252511 250.15165312 513.19131365 243.32415771 513.19566345 C241.86513017 513.19658285 241.86513017 513.19658285 240.37662733 513.19752082 C238.40047597 513.19879976 236.42432462 513.20009661 234.44817328 513.20141119 C215.92908621 513.21281027 197.4100784 513.19971382 178.89100432 513.17820972 C163.00973468 513.16033936 147.12858199 513.16344365 131.24731445 513.18188477 C112.7933211 513.20330334 94.33939719 513.2117117 75.88539314 513.19943571 C73.91661709 513.19816155 71.94784102 513.19690407 69.97906494 513.19566345 C68.52615022 513.1947378 68.52615022 513.1947378 67.04388368 513.19379345 C60.22664684 513.19034351 53.40945413 513.19616121 46.59222412 513.20558167 C38.28133551 513.21681399 29.97059798 513.21373568 21.65972662 513.19245869 C17.42147605 513.18196486 13.18347713 513.17779788 8.94522858 513.1910553 C5.06150767 513.20301978 1.17827044 513.19635047 -2.7054069 513.17514509 C-4.10634853 513.17069611 -5.50733146 513.17290681 -6.90824628 513.18264824 C-18.66846635 513.25811814 -27.60478153 511.29708941 -36.30151367 503.07836914 C-42.55990933 495.68534068 -45.48277313 487.34286542 -45.46191406 477.76855469 C-45.46183853 476.60772873 -45.461763 475.44690277 -45.46168518 474.25090027 C-45.4565239 473.0080275 -45.45136261 471.76515472 -45.44604492 470.48461914 C-45.44462997 469.20432327 -45.44321503 467.9240274 -45.4417572 466.60493469 C-45.43795264 463.21342999 -45.42814011 459.82196862 -45.41705322 456.43048096 C-45.40679465 452.96480902 -45.40225008 449.49913003 -45.3972168 446.03344727 C-45.38619622 439.24241291 -45.36946437 432.45141058 -45.34838867 425.66040039 C-46.40751465 425.68134766 -47.46664062 425.70229492 -48.55786133 425.72387695 C-52.50498824 425.79653424 -56.45205659 425.84229293 -60.3996582 425.88012695 C-62.10483761 425.90018408 -63.80994873 425.92743696 -65.51489258 425.9621582 C-67.97258392 426.010939 -70.42936234 426.03342758 -72.88745117 426.05102539 C-73.64393951 426.07167053 -74.40042786 426.09231567 -75.17984009 426.11358643 C-80.36388468 426.11576085 -83.20192762 425.02425903 -87.34838867 421.66040039 C-91.54570678 417.17361206 -91.47302899 412.21826771 -91.48883057 406.30448914 C-91.49454071 405.02181152 -91.50025085 403.73913391 -91.50613403 402.41758728 C-91.50737924 401.00332651 -91.50850436 399.58906564 -91.50952148 398.17480469 C-91.51415278 396.67967609 -91.51917785 395.18454867 -91.52456665 393.68942261 C-91.53766181 389.6335262 -91.54412985 385.57764633 -91.54857731 381.52173209 C-91.55151241 378.98571092 -91.55561802 376.44969422 -91.56008148 373.91367531 C-91.57374819 365.9729803 -91.58341915 358.03229558 -91.58728337 350.09158963 C-91.59176365 340.93626273 -91.6093136 331.78108515 -91.63828397 322.62580365 C-91.65992147 315.54113228 -91.66998874 308.45650287 -91.67132449 301.37179881 C-91.67237094 297.14393765 -91.67824477 292.91621701 -91.6961441 288.68839073 C-91.71266087 284.70992458 -91.71476291 280.73170408 -91.7060051 276.75321579 C-91.70523667 275.29720081 -91.70955167 273.84117241 -91.71946335 272.38519096 C-91.76772355 264.85117863 -91.79670044 258.46160959 -88.34838867 251.66040039 C-83.35303922 246.78993467 -79.09073634 246.51670074 -72.39916992 246.56274414 C-71.62655319 246.56415909 -70.85393646 246.56557404 -70.0579071 246.56703186 C-67.59219478 246.57262573 -65.12657352 246.58517706 -62.66088867 246.59790039 C-60.98836394 246.60291619 -59.31583779 246.60747895 -57.64331055 246.61157227 C-53.54496821 246.62259315 -49.44669388 246.63985355 -45.34838867 246.66040039 C-45.35115405 245.55125841 -45.35391943 244.44211643 -45.35676861 243.29936409 C-45.42339662 216.29914819 -45.47267991 189.29894296 -45.50382519 162.29866219 C-45.51928752 149.24147747 -45.54036501 136.1843471 -45.57470703 123.12719727 C-45.60462868 111.74527667 -45.62396828 100.36339544 -45.63065416 88.98143661 C-45.6345617 82.95598024 -45.64373197 76.93063647 -45.66557884 70.90521622 C-45.68598756 65.23029914 -45.69221355 59.55554073 -45.68771172 53.88059044 C-45.68853495 51.80135803 -45.69447432 49.72212014 -45.7060051 47.64291954 C-45.72101781 44.79545541 -45.71731035 41.94858371 -45.70915222 39.10110474 C-45.71789075 38.28589737 -45.72662927 37.47069 -45.7356326 36.63077939 C-45.65265733 25.85373985 -41.98130091 16.85936508 -34.75463867 8.90649414 C-24.78280189 -0.47738057 -12.83194126 0.03942865 0 0 Z " fill="#4DB2F1" transform="translate(122.348388671875,-0.660400390625)"/>
<path d="M0 0 C1.20466112 -0.00035775 2.40932225 -0.0007155 3.65048826 -0.00108409 C4.99415328 0.0036257 6.33781796 0.00843477 7.68148232 0.01333237 C9.10356375 0.01487795 10.52564571 0.01598967 11.9477278 0.01670337 C15.86485674 0.019985 19.7819485 0.02962269 23.6990633 0.04031062 C27.91999924 0.05076381 32.14094224 0.05546897 36.36188698 0.06098557 C45.59523673 0.07421443 54.82855983 0.09507524 64.06189108 0.11755085 C69.82444573 0.13156112 75.58700302 0.14406958 81.34956169 0.15629959 C97.29685254 0.19041999 113.24413653 0.22642511 129.19140625 0.26939392 C130.21236896 0.27214197 131.23333167 0.27489001 132.28523264 0.27772133 C133.82038583 0.28185634 133.82038583 0.28185634 135.38655221 0.28607488 C137.46049904 0.2916603 139.53444587 0.2972427 141.60839272 0.30282211 C142.63714676 0.3055913 143.66590079 0.30836048 144.7258292 0.31121358 C161.40265399 0.35574496 178.07947444 0.38679286 194.75633852 0.41202191 C211.86826965 0.43809991 228.98014665 0.4753366 246.09202921 0.52384162 C255.70378293 0.55082678 265.31549442 0.57298133 274.92728233 0.58285904 C283.11038855 0.59132379 291.29339147 0.60995719 299.47644089 0.64196286 C303.65321436 0.65799275 307.82985337 0.66914982 312.00666046 0.66736031 C315.828667 0.66583915 319.65037255 0.67803466 323.47230656 0.70125863 C324.85653702 0.707237 326.24080038 0.70814397 327.62503605 0.70352724 C329.5040267 0.69800084 331.38304449 0.71261252 333.26197815 0.72825623 C334.30648144 0.7306969 335.35098473 0.73313757 336.42713964 0.73565221 C340.98081558 1.34742128 343.52057944 3.27730256 346.50683022 6.67831039 C349.25834012 10.51077062 349.38645354 12.5604221 349.40400124 17.26954269 C349.41473419 19.24002579 349.41473419 19.24002579 349.42568398 21.25031662 C349.42852441 22.7148397 349.43123612 24.17936303 349.43383217 25.64388657 C349.44009573 27.17960388 349.44674243 28.71531966 349.45374489 30.25103378 C349.47116686 34.43099884 349.48171035 38.61095244 349.48995042 42.79094481 C349.49509906 45.40248867 349.50117492 48.01402896 349.50746155 50.6255703 C349.52651876 58.79639716 349.54074759 66.96721497 349.54907352 75.13805979 C349.55884261 84.56967025 349.58515127 94.0010458 349.62557441 103.4325735 C349.65574334 110.7218369 349.67054321 118.01103302 349.67385453 125.30035764 C349.67620454 129.65403456 349.68515808 134.00746069 349.7103157 138.36107063 C349.73361453 142.45937483 349.73782252 146.55726347 349.72755432 150.65561676 C349.72705925 152.15720821 349.73337123 153.65882022 349.74711037 155.16034889 C349.8730618 169.74539259 349.8730618 169.74539259 345.25683022 175.11581039 C338.72964191 180.14490592 332.36318158 179.67794529 324.35788918 179.62374496 C322.93306134 179.62835674 321.50823827 179.63471152 320.0834251 179.64265394 C316.17715122 179.65933246 312.27126887 179.65110783 308.36499369 179.63870907 C304.1488485 179.62965487 299.93277041 179.64363007 295.71663857 179.65462875 C287.4611001 179.67241416 279.2057071 179.66857404 270.95016294 179.65697819 C264.24127258 179.64794484 257.53242299 179.64671944 250.82352829 179.65107346 C249.86870943 179.65168639 248.91389057 179.65229932 247.9301378 179.65293083 C245.99045792 179.65420972 244.05077804 179.65550658 242.11109818 179.65682119 C223.92358566 179.66822689 205.73615379 179.65511311 187.5486545 179.63361973 C171.94067856 179.61574589 156.3328216 179.61885523 140.72484779 179.63729477 C122.60089139 179.6586967 104.47700565 179.66713128 86.35303837 179.65484571 C84.42079772 179.65357151 82.48855705 179.65231403 80.55631638 179.65107346 C79.60560752 179.65045635 78.65489866 179.64983925 77.67538045 179.64920345 C70.97351876 179.64574873 64.27170186 179.65158146 57.56984711 179.66099167 C49.40406363 179.67220537 41.23843397 179.66918474 33.07266813 179.64786869 C28.90581677 179.63735022 24.73922195 179.63324995 20.57237244 179.6464653 C16.75843636 179.65837854 12.94499481 179.65184477 9.13110364 179.63055509 C7.75100488 179.62608448 6.37086441 179.6283657 4.99079245 179.63805825 C-7.77844295 179.72086483 -7.77844295 179.72086483 -12.74316978 175.11581039 C-16.9404879 170.62902207 -16.86781011 165.67367771 -16.88361168 159.75989914 C-16.88932182 158.47722153 -16.89503197 157.19454391 -16.90091515 155.87299728 C-16.90216035 154.45873652 -16.90328548 153.04447564 -16.9043026 151.63021469 C-16.90893389 150.13508609 -16.91395897 148.63995867 -16.91934776 147.14483261 C-16.93244292 143.0889362 -16.93891096 139.03305633 -16.94335842 134.9771421 C-16.94629352 132.44112092 -16.95039913 129.90510423 -16.95486259 127.36908531 C-16.9685293 119.42839031 -16.97820027 111.48770558 -16.98206449 103.54699963 C-16.98654477 94.39167273 -17.00409472 85.23649516 -17.03306508 76.08121365 C-17.05470258 68.99654228 -17.06476985 61.91191287 -17.0661056 54.82720882 C-17.06715205 50.59934765 -17.07302588 46.37162701 -17.09092522 42.14380074 C-17.10744198 38.16533458 -17.10954402 34.18711408 -17.10078621 30.20862579 C-17.10001779 28.75261081 -17.10433278 27.29658242 -17.11424446 25.84060097 C-17.16250466 18.30658863 -17.19148155 11.91701959 -13.74316978 5.11581039 C-9.36544929 0.84753291 -5.98012722 -0.01025877 0 0 Z " fill="#0077CC" transform="translate(47.7431697845459,245.8841896057129)"/>
<path d="M0 0 C3.8597773 1.8158486 6.86264639 4.27968892 10.0625 7.0625 C11.22981968 8.06455869 12.39779826 9.06585029 13.56640625 10.06640625 C14.14664551 10.56414551 14.72688477 11.06188477 15.32470703 11.57470703 C17.6879124 13.58525686 20.09143529 15.54414643 22.5 17.5 C29.30413786 23.04192098 35.97975878 28.73308923 42.66601562 34.41601562 C49.12406926 39.90270514 55.61497616 45.33777129 62.1875 50.6875 C65.88014364 53.72367366 69.52121788 56.8184997 73.1640625 59.9140625 C76.5805954 62.81244823 80.02504838 65.671551 83.5 68.5 C90.30413786 74.04192098 96.97975878 79.73308923 103.66601562 85.41601562 C110.12406926 90.90270514 116.61497616 96.33777129 123.1875 101.6875 C126.88014364 104.72367366 130.52121788 107.8184997 134.1640625 110.9140625 C137.5805954 113.81244823 141.02504838 116.671551 144.5 119.5 C149.5983634 123.65258004 154.62367358 127.88526791 159.6328125 132.14453125 C161.9720438 134.13294678 164.32215603 136.10753791 166.6796875 138.07421875 C167.2773291 138.57453613 167.8749707 139.07485352 168.49072266 139.59033203 C169.64183639 140.55358707 170.7950782 141.51430613 171.95068359 142.47216797 C175.88764046 145.77528092 175.88764046 145.77528092 177 148 C118.92 148 60.84 148 1 148 C-0.34661724 145.30676552 -0.12284174 143.23347437 -0.12025452 140.21676636 C-0.12162918 138.98555054 -0.12300385 137.75433472 -0.12442017 136.48580933 C-0.1208808 135.11407447 -0.11724598 133.74233985 -0.11352539 132.37060547 C-0.11324344 130.93190513 -0.11340141 129.49320465 -0.1139679 128.05450439 C-0.11425556 124.14151195 -0.10836378 120.22854998 -0.10139394 116.31556463 C-0.09515531 112.22894284 -0.0945562 108.1423204 -0.09336853 104.05569458 C-0.09025672 96.31382397 -0.08204535 88.57196744 -0.07201904 80.83010304 C-0.06085325 72.01765069 -0.05534628 63.20519767 -0.05032361 54.39274001 C-0.03986262 36.26181869 -0.02226608 18.13091047 0 0 Z " fill="#0077CC" transform="translate(302,0)"/>
<path d="M0 0 C1.19471924 0.01015137 1.19471924 0.01015137 2.41357422 0.02050781 C12.99234509 0.20689878 22.5307431 2.42680537 30.6796875 9.640625 C40.36457264 20.42487549 41.05448865 32.94115245 40.36767578 46.71679688 C39.54256179 55.32985803 35.71746528 63.56360815 29.125 69.25 C18.44638951 77.81170533 5.23809884 78.31322423 -7.875 77.25 C-16.80911651 75.88253319 -24.59948343 71.459022 -30.25 64.375 C-37.87050716 53.3558733 -38.02919081 40.16002215 -36.875 27.25 C-34.52300469 17.37567486 -29.43622181 10.30714696 -20.9375 4.9375 C-14.1723448 0.92240789 -7.71256832 -0.09431351 0 0 Z " fill="#FBFDFE" transform="translate(167.875,297.75)"/>
<path d="M0 0 C10.1475 -0.061875 10.1475 -0.061875 20.5 -0.125 C22.61986328 -0.14320801 24.73972656 -0.16141602 26.92382812 -0.18017578 C28.62629952 -0.18602348 30.32877373 -0.19111838 32.03125 -0.1953125 C32.89717773 -0.20554443 33.76310547 -0.21577637 34.65527344 -0.22631836 C44.36238023 -0.22907293 52.1253303 1.82171168 59.625 8.25 C69.83612473 20.07340758 69.90337531 32.15943656 69.23388672 47.22412109 C68.50405339 55.88613042 64.58779172 62.5632494 58.1796875 68.37890625 C49.98034127 74.47698633 41.34578954 75.15692657 31.4453125 75.09765625 C30.64536865 75.09664917 29.8454248 75.09564209 29.02124023 75.09460449 C26.05581207 75.08940396 23.09040448 75.07544286 20.125 75.0625 C10.163125 75.0315625 10.163125 75.0315625 0 75 C0 50.25 0 25.5 0 0 Z " fill="#F9FCFD" transform="translate(52,299)"/>
<path d="M0 0 C8.58 0 17.16 0 26 0 C31.9375 10.4375 31.9375 10.4375 33.80834961 13.73217773 C34.29311768 14.58239502 34.77788574 15.4326123 35.27734375 16.30859375 C35.77484131 17.18314209 36.27233887 18.05769043 36.78491211 18.95874023 C37.84060192 20.92257517 37.84060192 20.92257517 39 22 C42.96 14.74 46.92 7.48 51 0 C59.25 0 67.5 0 76 0 C74.58470012 3.53824969 73.41885815 6.14248661 71.42578125 9.2578125 C70.9258667 10.04341553 70.42595215 10.82901855 69.91088867 11.63842773 C69.11968628 12.86928101 69.11968628 12.86928101 68.3125 14.125 C67.77665283 14.9694165 67.24080566 15.81383301 66.6887207 16.68383789 C64.36983854 20.3326929 62.03777373 23.96844024 59.6171875 27.55078125 C58.66199219 28.97970703 58.66199219 28.97970703 57.6875 30.4375 C57.13449219 31.24058594 56.58148438 32.04367187 56.01171875 32.87109375 C54.75315214 35.5194289 55.08498598 36.27007693 56 39 C57.03354564 40.98917192 57.03354564 40.98917192 58.3359375 42.984375 C58.81836914 43.74766113 59.30080078 44.51094727 59.79785156 45.29736328 C60.31831055 46.1067334 60.83876953 46.91610352 61.375 47.75 C61.90577148 48.5838623 62.43654297 49.41772461 62.98339844 50.27685547 C67.08299769 56.67625951 71.33112898 62.9658797 75.69677734 69.18652344 C79 73.90471411 79 73.90471411 79 75 C74.79285562 75.26221814 70.58781109 75.42147604 66.375 75.5625 C64.59029297 75.67561523 64.59029297 75.67561523 62.76953125 75.79101562 C54.1359513 76.00806093 54.1359513 76.00806093 50.97460938 73.20263672 C49.40821648 70.87037473 48.18834747 68.54335031 47 66 C46.26022143 64.76148557 45.5063603 63.53119973 44.734375 62.3125 C43.39952268 60.08424259 42.06621567 57.8550588 40.734375 55.625 C39.26356889 52.92356676 39.26356889 52.92356676 37 52 C36.7525 52.63292969 36.505 53.26585937 36.25 53.91796875 C35.63125 55.44357422 35.63125 55.44357422 35 57 C34.74347656 57.69303223 34.48695313 58.38606445 34.22265625 59.10009766 C31.87987809 65.08649915 29.28166806 71.09222202 24 75 C15.59400885 77.27865991 6.53371981 76.10191504 -2 75 C-0.40274778 70.25165936 2.22995686 66.52959265 5.078125 62.46875 C6.08414506 61.0044636 7.0893288 59.53960234 8.09375 58.07421875 C9.67461265 55.7773357 11.26066065 53.48479404 12.86132812 51.20166016 C14.40872798 48.98925809 15.93243585 46.76206427 17.453125 44.53125 C18.18103241 43.51073547 18.18103241 43.51073547 18.92364502 42.46960449 C20.43005728 40.32475317 20.43005728 40.32475317 22 37 C21.59712113 34.24076393 21.59712113 34.24076393 20 32 C19.60345215 31.2999585 19.2069043 30.59991699 18.79833984 29.87866211 C18.35699707 29.18522705 17.9156543 28.49179199 17.4609375 27.77734375 C16.96625977 26.99665527 16.47158203 26.2159668 15.96191406 25.41162109 C15.1763916 24.18693115 15.1763916 24.18693115 14.375 22.9375 C13.84100586 22.09783691 13.30701172 21.25817383 12.75683594 20.39306641 C9.03207682 14.55507204 5.22786189 8.77747212 1.328125 3.0546875 C0 1 0 1 0 0 Z " fill="#FBFDFE" transform="translate(297,299)"/>
<path d="M0 0 C1.32499512 0.01522705 1.32499512 0.01522705 2.67675781 0.03076172 C12.71536426 0.26995275 20.80101808 2.11375026 28.125 9.375 C31.72039373 13.81636872 34.25207437 17.6658657 35.125 23.375 C32.73112843 24.04949966 30.33530779 24.71476641 27.9375 25.375 C27.26396484 25.56578125 26.59042969 25.7565625 25.89648438 25.953125 C18.67902586 27.92472342 18.67902586 27.92472342 15.125 27.375 C13.68359375 25.9140625 13.68359375 25.9140625 12.5625 24 C10.773095 20.99082758 9.43759831 19.61951207 6.125 18.375 C1.61087776 17.66915543 -1.99143398 17.99156569 -6.1875 19.8125 C-11.81753093 25.18066902 -13.12188636 30.70072911 -13.3125 38.375 C-13.09402664 45.35108045 -12.33866021 51.3887452 -7.8125 56.875 C-3.73063339 60.0351548 0.11769836 59.86097728 5.125 59.375 C8.85702975 57.75237837 11.03636183 55.85606362 13.125 52.375 C13.84851427 50.39485568 14.52765389 48.39678685 15.125 46.375 C20.11344309 46.9849126 24.72655346 48.00974435 29.5625 49.4375 C30.79871094 49.79972656 32.03492188 50.16195312 33.30859375 50.53515625 C34.23800781 50.81230469 35.16742188 51.08945312 36.125 51.375 C34.67824583 59.9336931 30.89010792 66.56276573 24.10546875 71.97265625 C14.45070157 78.8090693 1.97388855 78.56634915 -9.375 76.84375 C-19.39196395 74.53984829 -25.91311342 69.73943788 -31.875 61.375 C-37.54390625 49.64734867 -39.0833877 35.45565818 -35.25 22.9375 C-31.48378831 13.16109682 -25.61019522 7.05529679 -16.15087891 2.5546875 C-10.73455469 0.2626957 -5.83740917 -0.09658703 0 0 Z " fill="#FBFDFE" transform="translate(254.875,297.625)"/>
<path d="M0 0 C3.48871618 2.79097294 5.77035435 5.49856304 7.1875 9.75 C8.24200916 28.93395508 8.24200916 28.93395508 4.1875 35.75 C0.19672206 39.64344189 -2.57076317 40.91995492 -8.0625 41.0625 C-13.16702776 40.98242898 -16.07603139 40.48646861 -19.8125 36.75 C-25.16202855 29.42164898 -24.53842733 20.37150727 -23.8125 11.75 C-22.98865455 7.16097658 -21.32127058 3.91976946 -17.8125 0.8125 C-12.04469584 -3.15286536 -6.28984871 -2.79548831 0 0 Z " fill="#0379CC" transform="translate(177.8125,317.25)"/>
<path d="M0 0 C11.82758621 0 11.82758621 0 17 3 C22.33269533 8.6133635 22.20807049 13.48007725 22.25 20.8125 C22.270625 21.70259766 22.29125 22.59269531 22.3125 23.50976562 C22.34374236 28.77800808 21.95824673 32.44774653 19 37 C13.02794701 42.41217303 8.76737172 41 0 41 C0 27.47 0 13.94 0 0 Z " fill="#0378CC" transform="translate(76,316)"/>
</svg>
