<?xml version="1.0" encoding="UTF-8"?>
<svg version="1.1" xmlns="http://www.w3.org/2000/svg" width="512" height="512">
<path d="M0 0 C0.70423792 -0.00235223 1.40847584 -0.00470446 2.1340543 -0.00712797 C4.49972187 -0.01379807 6.86533427 -0.01336035 9.23101044 -0.01294994 C10.94197851 -0.01624981 12.6529458 -0.01997564 14.36391211 -0.02409142 C19.07057326 -0.03410562 23.77722166 -0.03782729 28.48389196 -0.04048073 C33.55840693 -0.04438551 38.63291182 -0.05396375 43.70742035 -0.0626936 C55.96505193 -0.08245331 68.22268432 -0.0925237 80.48032784 -0.10142139 C86.25360178 -0.10580518 92.0268748 -0.11117176 97.80014801 -0.11641026 C116.9935436 -0.13342221 136.18693861 -0.14791613 155.38034058 -0.155159 C160.36079662 -0.15706887 165.34125266 -0.15898921 170.32170868 -0.16094494 C172.17849598 -0.16167055 172.17849598 -0.16167055 174.07279414 -0.16241082 C194.12288756 -0.17071017 214.1729213 -0.19604567 234.22298867 -0.22852562 C254.81090686 -0.26160477 275.39879473 -0.27960854 295.98673964 -0.28280324 C307.54489054 -0.28496756 319.10295442 -0.2937049 330.66107941 -0.31926441 C340.50505824 -0.34098307 350.3489289 -0.34901606 360.19292897 -0.33929763 C365.21326939 -0.33475632 370.23338669 -0.33662946 375.25369644 -0.35605907 C379.85568927 -0.37371546 384.45729662 -0.37267292 389.05929369 -0.35716178 C390.71818487 -0.35478947 392.37710292 -0.35908958 394.0359531 -0.37099043 C412.45141215 -0.49485102 427.84341219 4.19460706 441.15862274 17.24750233 C450.47868349 26.97564483 457.03013304 39.49228001 457.05846882 53.2109499 C457.06292666 54.21610598 457.06738451 55.22126206 457.07197744 56.25687742 C457.07170089 57.90261944 457.07170089 57.90261944 457.07141876 59.58160877 C457.07509545 60.75277162 457.07877214 61.92393447 457.08256024 63.1305871 C457.09166844 66.37785198 457.09629269 69.62508716 457.09894955 72.87236261 C457.10286067 76.3763132 457.11243849 79.88024927 457.12116241 83.38419056 C457.14090495 91.84497577 457.15099063 100.30576213 457.1598902 108.76656461 C457.16427708 112.75465202 457.16964289 116.7427381 457.17487907 120.73082447 C457.19188981 133.99485721 457.20638257 147.25888913 457.21362782 160.5229311 C457.21553759 163.96334808 457.21745794 167.40376506 457.21941376 170.84418201 C457.2198975 171.69924153 457.22038124 172.55430104 457.22087964 173.43527144 C457.2291747 187.27751233 457.25450344 201.11966666 457.28699443 214.96186978 C457.3201076 229.18555866 457.33808045 243.40920362 457.34127206 257.63293123 C457.34343331 265.6140524 457.35212535 273.59504736 457.37773323 281.57613087 C457.39949856 288.37518558 457.40746214 295.17408343 457.39776645 301.97316903 C457.39323841 305.4381429 457.3950196 308.90279351 457.41452789 312.36772251 C457.43228421 316.13573941 457.42512097 319.90294589 457.41199493 323.67096424 C457.4284488 325.2899376 457.4284488 325.2899376 457.44523507 326.94161749 C457.31062087 343.03744919 450.95682189 356.99874989 439.81096649 368.36859608 C429.28507992 378.45293666 416.49865004 384.24755947 401.84849548 384.26844215 C401.14425756 384.27079438 400.44001964 384.27314661 399.71444118 384.27557012 C397.34877361 384.28224022 394.98316122 384.2818025 392.61748505 384.2813921 C390.90651698 384.28469196 389.19554968 384.28841779 387.48458338 384.29253358 C382.77792222 384.30254778 378.07127382 384.30626944 373.36460352 384.30892289 C368.29008855 384.31282767 363.21558366 384.32240591 358.14107513 384.33113575 C345.88344356 384.35089547 333.62581116 384.36096585 321.36816764 384.36986354 C315.5948937 384.37424734 309.82162068 384.37961392 304.04834747 384.38485241 C284.85495189 384.40186437 265.66155687 384.41635829 246.46815491 384.42360115 C241.48769887 384.42551102 236.50724283 384.42743136 231.5267868 384.42938709 C229.6699995 384.4301127 229.6699995 384.4301127 227.77570134 384.43085297 C207.72560792 384.43915233 187.67557418 384.46448782 167.62550682 384.49696777 C147.03758863 384.53004692 126.44970075 384.5480507 105.86175585 384.55124539 C94.30360495 384.55340971 82.74554107 384.56214705 71.18741608 384.58770657 C61.34343725 384.60942523 51.49956658 384.61745821 41.65556651 384.60773978 C36.63522609 384.60319848 31.61510879 384.60507161 26.59479904 384.62450123 C21.99280621 384.64215762 17.39119886 384.64111508 12.7892018 384.62560394 C11.13031062 384.62323163 9.47139257 384.62753173 7.81254238 384.63943259 C-11.26163138 384.76772362 -26.70562343 379.35186496 -40.41168976 365.91937733 C-49.28248928 356.64535965 -55.18327812 344.01690829 -55.20997334 331.03908157 C-55.2166601 329.52519731 -55.2166601 329.52519731 -55.22348195 327.98072952 C-55.22329759 326.87899511 -55.22311323 325.77726069 -55.22292328 324.64214039 C-55.22659997 323.46618842 -55.23027665 322.29023646 -55.23406476 321.07864958 C-55.24317312 317.81805254 -55.24779723 314.55748507 -55.25045407 311.2968775 C-55.25436508 307.77863101 -55.26394286 304.26039898 -55.27266693 300.74216175 C-55.29240894 292.24726958 -55.30249472 283.75237625 -55.31139472 275.25746688 C-55.31578136 271.25380952 -55.3211472 267.25015348 -55.32638359 263.24649715 C-55.34339367 249.93185005 -55.35788688 236.61720376 -55.36513233 223.30254745 C-55.36704212 219.84905909 -55.36896247 216.39557074 -55.37091827 212.94208241 C-55.37164388 211.65461375 -55.37164388 211.65461375 -55.37238415 210.34113563 C-55.38068093 196.44325389 -55.40601287 182.54545831 -55.43849895 168.64761417 C-55.47160311 154.36855952 -55.48958413 140.0895486 -55.49277657 125.81045538 C-55.49493857 117.79750826 -55.50364168 109.7846868 -55.52923775 101.77177715 C-55.55099068 94.9463436 -55.55897268 88.12106624 -55.54927097 81.29560196 C-55.54473947 77.81657565 -55.54654457 74.3378713 -55.56603241 70.85888958 C-55.58376591 67.07738608 -55.57663663 63.29669192 -55.56349945 59.51518726 C-55.5744687 58.4290679 -55.58543794 57.34294854 -55.59673959 56.22391647 C-55.4661402 40.58542283 -48.76849564 26.92482686 -37.96247101 15.89984608 C-27.43658444 5.81550549 -14.65015455 0.02088268 0 0 Z " fill="#EBEEF0" transform="translate(55.07575225830078,63.86577892303467)"/>
<path d="M0 0 C1.45210797 1.21599764 2.87209674 2.47065652 4.27157593 3.74687195 C5.16104794 4.55790564 6.05051994 5.36893932 6.96694565 6.20454979 C7.97860657 7.1356686 8.98959124 8.06752254 10 9 C10.53823222 9.49627529 11.07646443 9.99255059 11.63100672 10.50386453 C16.13224212 14.66029253 20.61293096 18.83854112 25.08837891 23.02270508 C25.81956562 23.70602968 26.55075233 24.38935429 27.30409622 25.0933857 C41.76296501 38.61764404 56.05110201 52.31597572 70.27633095 66.08546925 C79.30808605 74.82031337 88.38806629 83.49018644 97.60791016 92.02661133 C166.01794931 155.46115228 166.01794931 155.46115228 167.29562771 185.18475014 C167.4816388 197.42648433 165.39144904 209.28194605 162 221 C161.61079929 222.43350253 161.22179602 223.86705869 160.83306885 225.3006897 C156.38901648 240.63396746 148.19594125 252.69267604 134.68359375 261.53515625 C125.78576456 266.39204991 117.03378883 269.11981069 106.92424774 269.13422108 C106.22000982 269.13657331 105.5157719 269.13892554 104.79019344 269.14134905 C102.42452587 269.14801915 100.05891348 269.14758143 97.6932373 269.14717102 C95.98226923 269.15047089 94.27130194 269.15419672 92.56033564 269.1583125 C87.85367448 269.1683267 83.14702608 269.17204836 78.44035578 269.17470181 C73.36584081 269.17860659 68.29133592 269.18818483 63.21682739 269.19691467 C50.95919582 269.21667439 38.70156342 269.22674477 26.4439199 269.23564246 C20.67064596 269.24002626 14.89737294 269.24539284 9.12409973 269.25063133 C-10.06929585 269.26764329 -29.26269087 269.28213721 -48.45609283 269.28938007 C-53.43654888 269.29128995 -58.41700491 269.29321028 -63.39746094 269.29516602 C-65.25424824 269.29589163 -65.25424824 269.29589163 -67.1485464 269.2966319 C-87.19863982 269.30493125 -107.24867356 269.33026674 -127.29874092 269.36274669 C-147.88665912 269.39582584 -168.47454699 269.41382962 -189.06249189 269.41702431 C-200.6206428 269.41918864 -212.17870667 269.42792597 -223.73683167 269.45348549 C-233.58081049 269.47520415 -243.42468116 269.48323713 -253.26868123 269.47351871 C-258.28902165 269.4689774 -263.30913895 269.47085054 -268.3294487 269.49028015 C-272.93144153 269.50793654 -277.53304888 269.506894 -282.13504595 269.49138286 C-283.79393713 269.48901055 -285.45285517 269.49331066 -287.11170536 269.50521151 C-306.18587912 269.63350254 -321.62987117 264.21764388 -335.3359375 250.78515625 C-345.93129893 239.70818748 -350.55787806 225.26706957 -350.81003368 210.1036551 C-350.47953576 200.57623359 -345.28742901 195.83670513 -338.68408203 189.57714844 C-337.46495197 188.35654419 -336.24976761 187.13198837 -335.03822327 185.90385437 C-331.76103817 182.60456614 -328.43131655 179.36362383 -325.08817911 176.13136196 C-321.58489846 172.72639104 -318.13165882 169.27135344 -314.67208862 165.82208252 C-308.85852432 160.03973935 -303.01301778 154.29148891 -297.14355469 148.56591797 C-288.88557067 140.51017391 -280.69167364 132.39150601 -272.50755906 124.26082945 C-266.81295985 118.60841548 -261.10257393 112.97195936 -255.38966894 107.33805561 C-254.01096686 105.97812559 -252.63276836 104.61768484 -251.25507593 103.25673199 C-247.32549326 99.37558889 -243.38632493 95.50472267 -239.43125725 91.64954567 C-238.23890314 90.48466377 -237.04967922 89.31656712 -235.86398125 88.14491081 C-225.60055842 78.01190778 -216.24131308 70.14643698 -201.25 69.625 C-189.38817222 69.80166552 -180.29791785 74.36130507 -172.15377808 82.74787903 C-171.58482819 83.34283676 -171.0158783 83.93779449 -170.4296875 84.55078125 C-169.19182623 85.81876952 -167.95353239 87.0863356 -166.71484375 88.35351562 C-164.78295166 90.34144395 -162.85526169 92.33305059 -160.93505859 94.33227539 C-159.06925154 96.27031793 -157.18835188 98.19261334 -155.3046875 100.11328125 C-154.44518997 101.02089958 -154.44518997 101.02089958 -153.56832886 101.94685364 C-151.78729784 103.80926787 -151.78729784 103.80926787 -149 106 C-145.18046775 105.7945231 -143.30079268 103.66483802 -140.70050049 101.04107666 C-139.8483194 100.18868408 -138.99613831 99.3362915 -138.11813354 98.45806885 C-137.18181803 97.50635127 -136.24563472 96.55450362 -135.30957031 95.60253906 C-134.31771537 94.60492598 -133.32517473 93.60799423 -132.33200073 92.61169434 C-130.19420834 90.46441655 -128.06116689 88.31256503 -125.93161774 86.15711212 C-122.56003189 82.74494379 -119.17702028 79.34426017 -115.79217529 75.94525146 C-107.99249269 68.10942647 -100.20782513 60.25873905 -92.42338562 52.40777588 C-85.29892876 45.22270234 -78.17129889 38.04085478 -71.03138804 30.87113357 C-67.67158806 27.49643774 -64.31922963 24.11457435 -60.97248125 20.72693682 C-58.88129872 18.61326092 -56.78381567 16.50592234 -54.68463516 14.40019226 C-53.25925925 12.96658642 -51.84147098 11.52544874 -50.42398071 10.08404541 C-36.39354955 -3.94982222 -18.5234171 -10.64200869 0 0 Z " fill="#388E3C" transform="translate(350,179)"/>
<path d="M0 0 C2.27271117 2.02235937 4.40402295 4.16983051 6.53515625 6.33984375 C7.13629745 6.94381485 7.73743866 7.54778595 8.35679626 8.1700592 C10.26348229 10.08785933 12.16308289 12.01250314 14.0625 13.9375 C15.34132979 15.22637507 16.62062255 16.51479096 17.90039062 17.80273438 C20.72993103 20.65181088 23.55502034 23.50521569 26.37611389 26.36265564 C30.75418252 30.77700831 35.16283796 35.16114055 39.56159973 39.55487061 C40.90291163 40.89471613 42.24422005 42.23456515 43.58552551 43.57441711 C44.29781122 44.28592737 45.01009693 44.99743763 45.74396706 45.7305088 C62.1055504 62.07444903 78.46431379 78.42120924 94.82143116 94.76961899 C104.75082135 104.69358162 114.68144711 114.61630336 124.6141266 124.5369738 C132.39965493 132.31316746 140.18326112 140.09128117 147.96517771 147.87108922 C152.33452238 152.23912695 156.70475196 156.60627118 161.07706642 160.97133636 C165.18233963 165.0698564 169.28529776 169.17067935 173.38644028 173.2733326 C174.89653303 174.78314879 176.40749177 176.29209937 177.91935158 177.8001461 C179.97297105 179.84883684 182.02353635 181.90053495 184.07331848 183.95306396 C184.68078677 184.55761941 185.28825505 185.16217485 185.91413146 185.78505015 C190 189.88587827 190 189.88587827 190 191 C150.09216821 191.09162002 110.18435016 191.16207146 70.27643414 191.20426132 C65.56148652 191.20926395 60.84653911 191.21444126 56.1315918 191.21972656 C55.19295818 191.2207758 54.25432456 191.22182505 53.2872475 191.22290608 C38.10289368 191.24029599 22.91860064 191.27182588 7.73428283 191.30861118 C-7.85429722 191.34605998 -23.44284551 191.36824418 -39.03146869 191.37635398 C-48.64510396 191.38183359 -58.25856743 191.39912025 -67.8721498 191.43166587 C-74.47077426 191.45286241 -81.06931032 191.45918844 -87.66796633 191.45400551 C-91.47111999 191.4514517 -95.2739741 191.45527685 -99.07707405 191.4768219 C-103.21093368 191.50006827 -107.34416251 191.49190767 -111.47807312 191.48101807 C-112.66585489 191.49266943 -113.85363667 191.5043208 -115.07741183 191.51632524 C-132.11916257 191.39548348 -146.32670335 184.55468117 -158.3359375 172.78515625 C-168.93129893 161.70818748 -173.55787806 147.26706957 -173.81003368 132.1036551 C-173.47953576 122.57623359 -168.28742901 117.83670513 -161.68408203 111.57714844 C-160.46495197 110.35654419 -159.24976761 109.13198837 -158.03822327 107.90385437 C-154.76103817 104.60456614 -151.43131655 101.36362383 -148.08817911 98.13136196 C-144.58489846 94.72639104 -141.13165882 91.27135344 -137.67208862 87.82208252 C-131.85852432 82.03973935 -126.01301778 76.29148891 -120.14355469 70.56591797 C-111.88557067 62.51017391 -103.69167364 54.39150601 -95.50755906 46.26082945 C-89.81295985 40.60841548 -84.10257393 34.97195936 -78.38966894 29.33805561 C-77.01096686 27.97812559 -75.63276836 26.61768484 -74.25507593 25.25673199 C-70.32549326 21.37558889 -66.38632493 17.50472267 -62.43125725 13.64954567 C-61.23890314 12.48466377 -60.04967922 11.31656712 -58.86398125 10.14491081 C-41.69580853 -6.80510179 -21.73570247 -15.48634128 0 0 Z " fill="#4CAF50" transform="translate(173,257)"/>
<path d="M0 0 C7.88329018 6.42095979 14.73149793 16.08552278 16.00366211 26.41455078 C17.00324312 40.6082893 14.89471535 51.66111568 5.50390625 62.88671875 C1.09014283 67.39675554 -3.58160341 70.63617296 -9.24609375 73.38671875 C-9.90609375 73.72574219 -10.56609375 74.06476563 -11.24609375 74.4140625 C-20.57057396 78.36603946 -33.50154592 77.93964887 -42.80859375 74.32421875 C-53.87268805 68.84558447 -63.06617877 60.44625492 -67.18359375 48.51171875 C-67.57537787 47.14696081 -67.93006389 45.77098179 -68.24609375 44.38671875 C-68.42785156 43.59394531 -68.60960938 42.80117187 -68.796875 41.984375 C-70.84624272 30.13368338 -68.3976055 19.78514578 -61.953125 9.765625 C-55.48309174 0.74903403 -46.49675691 -5.44732567 -35.671875 -8.2890625 C-22.90519618 -9.99539799 -10.51548088 -7.55285844 0 0 Z " fill="#FEC108" transform="translate(133.24609375,136.61328125)"/>
</svg>
