<?xml version="1.0" encoding="UTF-8"?>
<svg version="1.1" xmlns="http://www.w3.org/2000/svg" width="512" height="512">
<path d="M0 0 C1.79876313 -0.02676693 3.5975052 -0.05498178 5.39622498 -0.08451843 C11.24917401 -0.17295551 17.1021439 -0.22013724 22.95556641 -0.2644043 C24.98406771 -0.28193624 27.01256732 -0.29966507 29.04106522 -0.3175869 C37.48263717 -0.38966134 45.92416746 -0.45183819 54.36598778 -0.48545551 C66.40340744 -0.53340495 78.43693365 -0.63988065 90.472978 -0.82994872 C98.97367255 -0.95953511 107.47334054 -1.02312224 115.97500098 -1.0383088 C121.03737793 -1.04895999 126.09581343 -1.08715207 131.15711594 -1.19579506 C165.95811664 -1.90597652 165.95811664 -1.90597652 174.96739388 6.68298054 C177.42341498 9.55560691 179.51408668 12.49943219 181.44405556 15.74649048 C183.19943244 18.55008731 185.30227412 20.57204852 187.71728516 22.8215332 C188.40113281 23.49764648 189.08498047 24.17375977 189.78955078 24.87036133 C190.43472656 25.50264648 191.07990234 26.13493164 191.74462891 26.78637695 C195.61811615 30.58643316 199.43228077 34.37437452 202.95947266 38.5012207 C207.72765039 44.03630342 212.98529734 49.09671246 218.18212891 54.22387695 C223.91119815 59.87614412 229.57722219 65.50444832 234.80908203 71.62817383 C239.04375601 76.36623971 243.65972678 80.76210071 248.18212891 85.22387695 C253.91119815 90.87614412 259.57722219 96.50444832 264.80908203 102.62817383 C269.04375601 107.36623971 273.65972678 111.76210071 278.18212891 116.22387695 C290.39447595 128.27250917 290.39447595 128.27250917 294.50602818 133.42111206 C296.32435959 135.34528298 297.91266629 136.65139425 300.04413509 138.16311646 C306.4206704 143.00740084 310.75507876 147.68241764 311.9677906 155.81573486 C312.55203579 162.81959534 312.48477861 169.82419232 312.35102475 176.84463787 C312.29625729 180.5366433 312.32334244 184.22822179 312.33988953 187.92047119 C312.35966552 195.13655968 312.30567789 202.35026634 312.22683734 209.56587648 C312.13806486 217.9826176 312.12671271 226.39894637 312.11904972 234.81608748 C312.10307261 249.84250974 312.02254359 264.86787137 311.90307617 279.89379883 C311.78746559 294.44721206 311.70952839 309.00011105 311.67749023 323.55395508 C311.67550832 324.45040796 311.6735264 325.34686084 311.67148442 326.27047896 C311.66360549 329.87476495 311.6558188 333.47905112 311.64819575 337.08333766 C311.61603629 351.8306772 311.55532528 366.57791952 311.48939967 381.32514191 C311.47443982 384.67641131 311.46047651 388.02768257 311.44735265 391.37895966 C311.41226915 400.18733499 311.36751163 408.99549734 311.2958178 417.80365896 C311.26624358 421.44287708 311.24086061 425.08197087 311.22816086 428.72129059 C311.21405388 432.6788869 311.17669472 436.63607839 311.13710022 440.59350586 C311.13628907 441.72602468 311.13547792 442.85854351 311.13464218 444.02538109 C310.98476097 455.0886849 309.27384997 466.13806087 303.99462891 475.97387695 C303.64722656 476.64153076 303.29982422 477.30918457 302.94189453 477.99707031 C294.47905333 493.7657832 281.01527838 505.04541887 264.07833862 510.8089447 C252.69534618 513.9713048 240.91560525 513.28993712 229.19433594 513.25732422 C226.51873834 513.26439039 223.84318509 513.27300322 221.16760254 513.28343201 C214.68167074 513.30496389 208.19591513 513.30497302 201.7099594 513.29680646 C196.43295377 513.29048083 191.15599913 513.29166685 185.87899399 513.29807854 C185.12506143 513.29898019 184.37112888 513.29988185 183.59434988 513.30081083 C182.06224505 513.30266222 180.53014022 513.30452478 178.99803542 513.30639838 C164.66300394 513.32293941 150.32807118 513.31428948 135.99304567 513.29741281 C122.90994223 513.28272168 109.82706858 513.29734248 96.74399473 513.32618297 C83.27370144 513.35565335 69.80351393 513.36652689 56.33318985 513.35700077 C54.80642503 513.35597833 53.2796602 513.35498372 51.75289536 513.35401726 C51.00191036 513.35354087 50.25092537 513.35306448 49.47718326 513.35257365 C44.21460727 513.35041945 38.95213257 513.36016037 33.68957901 513.37478828 C27.2644326 513.39240037 20.83957876 513.39206837 14.41444339 513.36943663 C11.14337706 513.35837356 7.87292463 513.35770459 4.60186386 513.37373734 C-18.85605578 513.47956101 -37.21084386 510.14494891 -54.84912109 493.31762695 C-69.93920605 477.46348706 -73.79816378 458.35052529 -73.69882202 437.17675781 C-73.70228636 435.54947821 -73.70705609 433.92220097 -73.71300375 432.29492855 C-73.72543689 427.86130292 -73.71937872 423.42787296 -73.7100451 418.99424696 C-73.70322318 414.19798478 -73.71375134 409.40175491 -73.72198486 404.60549927 C-73.73529101 395.22462891 -73.73245839 385.84383075 -73.72374694 376.46295762 C-73.7169585 368.83564047 -73.71605869 361.20834348 -73.71931839 353.58102417 C-73.71977809 352.49347082 -73.72023779 351.40591747 -73.72071142 350.28540796 C-73.72167064 348.07573167 -73.72264328 345.86605538 -73.72362919 343.6563791 C-73.73217395 322.95967496 -73.72236331 302.26301074 -73.70622809 281.56631315 C-73.69282575 263.8261712 -73.6951541 246.08608815 -73.70898438 228.34594727 C-73.72505634 207.72086016 -73.73135006 187.09580801 -73.72214758 166.47071552 C-73.72119199 164.26938693 -73.72024887 162.06805834 -73.71931839 159.86672974 C-73.71885556 158.78377009 -73.71839274 157.70081044 -73.71791589 156.58503383 C-73.71533085 148.97113988 -73.71968649 141.35726819 -73.72675705 133.74337769 C-73.73519022 124.4584948 -73.73285376 115.17368796 -73.71691482 105.88881373 C-73.70905654 101.15591674 -73.70589864 96.42314632 -73.71586227 91.6902504 C-73.72486054 87.35012967 -73.71979262 83.01025176 -73.70392962 78.67015278 C-73.7006034 77.1077508 -73.70222667 75.54532793 -73.70955698 73.9829396 C-73.76453587 61.28139588 -72.7431221 48.86265834 -66.63037109 37.47387695 C-66.28296875 36.80622314 -65.93556641 36.13856934 -65.57763672 35.45068359 C-57.04636013 19.55445585 -43.42629179 8.08640711 -26.20346069 2.65071106 C-17.4658499 0.21507331 -9.0227857 0.06463026 0 0 Z " fill="#E5252A" transform="translate(137.31787109375,-0.723876953125)"/>
<path d="M0 0 C3.31500494 1.65750247 4.56406245 2.32514059 6.85546875 4.87890625 C7.65295532 5.75373657 7.65295532 5.75373657 8.46655273 6.64624023 C9.03446533 7.27860596 9.60237793 7.91097168 10.1875 8.5625 C16.28982661 15.24093469 22.59579686 21.6730853 29.04956055 28.01196289 C32.25376176 31.17705574 35.35839362 34.36051965 38.28515625 37.78515625 C43.05014583 43.31806017 48.30582886 48.37546026 53.5 53.5 C59.22906924 59.15226717 64.89509328 64.78057137 70.12695312 70.90429688 C74.36162711 75.64236276 78.97759787 80.03822375 83.5 84.5 C89.22906924 90.15226717 94.89509328 95.78057137 100.12695312 101.90429688 C104.36162711 106.64236276 108.97759787 111.03822375 113.5 115.5 C119.31134999 121.23344488 125.07090537 126.94174913 130.37744141 133.15478516 C133.2371322 136.40689816 136.34418073 139.4096478 139.4375 142.4375 C140.68843431 143.6630861 141.93726253 144.89082695 143.18359375 146.12109375 C143.72556396 146.6514624 144.26753418 147.18183105 144.82592773 147.72827148 C146 149 146 149 146 150 C97.82 150 49.64 150 0 150 C0 100.5 0 51 0 0 Z " fill="#ED686B" transform="translate(302,0)"/>
<path d="M0 0 C56.45578231 0 56.45578231 0 70.80078125 13.72265625 C79.87854774 23.61133985 82.59121992 36.16824602 82.28515625 49.2890625 C81.45016448 60.1553938 77.89150554 72.10849446 70 80 C49.31491013 97.19748751 26.80198079 93 0 93 C0 62.31 0 31.62 0 0 Z " fill="#FEFDFD" transform="translate(221,289)"/>
<path d="M0 0 C7.87875 -0.0825 15.7575 -0.165 23.875 -0.25 C26.34210449 -0.28641602 28.80920898 -0.32283203 31.35107422 -0.36035156 C33.33560316 -0.37204851 35.32014181 -0.38223794 37.3046875 -0.390625 C38.81494507 -0.4213208 38.81494507 -0.4213208 40.35571289 -0.45263672 C49.54082068 -0.45710527 57.62157879 1.86472923 64.46484375 8.22265625 C70.89711447 15.66968724 72.36735556 23.01546164 72.28125 32.60546875 C71.64950814 40.23024202 68.532954 46.70760922 63 52 C56.20350096 56.69676763 51.2157826 59.13831266 42.921875 59.09765625 C41.87612305 59.09515869 40.83037109 59.09266113 39.75292969 59.09008789 C37.77147949 59.07643188 37.77147949 59.07643188 35.75 59.0625 C31.5425 59.041875 27.335 59.02125 23 59 C23 70.22 23 81.44 23 93 C15.41 93 7.82 93 0 93 C0 62.31 0 31.62 0 0 Z " fill="#FEFDFD" transform="translate(139,289)"/>
<path d="M0 0 C21.78 0 43.56 0 66 0 C66 6.6 66 13.2 66 20 C52.14 20 38.28 20 24 20 C24 24.95 24 29.9 24 35 C35.22 35 46.44 35 58 35 C58 41.6 58 48.2 58 55 C46.78 55 35.56 55 24 55 C24 67.54 24 80.08 24 93 C16.08 93 8.16 93 0 93 C0 62.31 0 31.62 0 0 Z " fill="#FEFDFD" transform="translate(315,289)"/>
<path d="M0 0 C20.2 0 20.2 0 28 6.5 C28.66 7.325 29.32 8.15 30 9 C30.556875 9.639375 31.11375 10.27875 31.6875 10.9375 C35.97390788 17.67328381 35.66876369 25.31345022 35 33 C33.62998844 39.13633919 31.18542487 43.94767611 26.09765625 47.75 C17.35857165 52.95764818 10.54080111 53 0 53 C0 35.51 0 18.02 0 0 Z " fill="#E5272C" transform="translate(244,309)"/>
<path d="M0 0 C2.866875 -0.0825 5.73375 -0.165 8.6875 -0.25 C9.58170654 -0.28641602 10.47591309 -0.32283203 11.3972168 -0.36035156 C15.44692845 -0.41666694 17.50103852 -0.31241573 21.01953125 1.890625 C23.06482177 4.06904094 23.97413518 5.04300157 24.0546875 8.0234375 C23.99539062 8.79945313 23.93609375 9.57546875 23.875 10.375 C23.83117187 11.14585937 23.78734375 11.91671875 23.7421875 12.7109375 C22.61562283 16.18550012 21.16160158 17.19686723 18 19 C14.87159109 19.46554571 11.84108414 19.37842779 8.6875 19.25 C4.3871875 19.12625 4.3871875 19.12625 0 19 C0 12.73 0 6.46 0 0 Z " fill="#E5272C" transform="translate(163,309)"/>
</svg>
