<?xml version="1.0" encoding="UTF-8"?>
<svg version="1.1" xmlns="http://www.w3.org/2000/svg" width="512" height="512">
<path d="M0 0 C1.01790619 0.00215515 2.03581238 0.0043103 3.08456421 0.00653076 C17.69363523 0.05620146 32.02575853 0.30709809 46.375 3.3125 C47.34985352 3.51117676 48.32470703 3.70985352 49.32910156 3.91455078 C97.7109774 14.03517194 141.69928269 35.9516877 177.375 70.3125 C178.3640332 71.26068604 178.3640332 71.26068604 179.37304688 72.22802734 C188.86130305 81.37247479 197.6012044 90.66984009 205.375 101.3125 C206.23306152 102.46355017 207.09113451 103.61459177 207.94921875 104.765625 C213.98736829 112.95680614 219.34595521 121.47054105 224.375 130.3125 C224.73948242 130.94430176 225.10396484 131.57610352 225.47949219 132.22705078 C247.08534998 169.97532572 256.85198095 212.74189997 256.6875 255.9375 C256.68534485 256.95540619 256.6831897 257.97331238 256.68096924 259.02206421 C256.63129854 273.63113523 256.38040191 287.96325853 253.375 302.3125 C253.07698486 303.77478027 253.07698486 303.77478027 252.77294922 305.26660156 C242.65232806 353.6484774 220.7358123 397.63678269 186.375 433.3125 C185.74287598 433.97185547 185.11075195 434.63121094 184.45947266 435.31054688 C175.31502521 444.79880305 166.01765991 453.5387044 155.375 461.3125 C154.22394983 462.17056152 153.07290823 463.02863451 151.921875 463.88671875 C143.73224019 469.92427396 135.22961724 475.30707302 126.375 480.3125 C125.66778809 480.7146875 124.96057617 481.116875 124.23193359 481.53125 C101.09654164 494.5566741 75.92537591 503.30551461 49.9375 508.625 C49.21860596 508.77235596 48.49971191 508.91971191 47.7590332 509.0715332 C33.08339502 511.86090125 18.55831162 512.66142619 3.64770508 512.62817383 C0.70811513 512.6250221 -2.2304558 512.64854926 -5.16992188 512.67382812 C-18.54306192 512.71848737 -31.43916711 511.51301542 -44.625 509.3125 C-46.33055054 509.03031616 -46.33055054 509.03031616 -48.07055664 508.74243164 C-91.33802759 500.97044532 -132.38793216 480.98345309 -165.625 452.3125 C-166.37007813 451.67828125 -167.11515625 451.0440625 -167.8828125 450.390625 C-181.38779833 438.57948485 -194.05918743 425.82889772 -204.625 411.3125 C-205.48149066 410.16255169 -206.33826433 409.01281411 -207.1953125 407.86328125 C-213.23534209 399.67315742 -218.61867614 391.16870382 -223.625 382.3125 C-224.0271875 381.60528809 -224.429375 380.89807617 -224.84375 380.16943359 C-237.8691741 357.03404164 -246.61801461 331.86287591 -251.9375 305.875 C-252.08485596 305.15610596 -252.23221191 304.43721191 -252.3840332 303.6965332 C-255.35789088 288.05024391 -255.99800362 272.57681954 -255.9375 256.6875 C-255.93534485 255.66959381 -255.9331897 254.65168762 -255.93096924 253.60293579 C-255.88129854 238.99386477 -255.63040191 224.66174147 -252.625 210.3125 C-252.42632324 209.33764648 -252.22764648 208.36279297 -252.02294922 207.35839844 C-241.90232806 158.9765226 -219.9858123 114.98821731 -185.625 79.3125 C-184.99287598 78.65314453 -184.36075195 77.99378906 -183.70947266 77.31445312 C-174.56502521 67.82619695 -165.26765991 59.0862956 -154.625 51.3125 C-153.47394983 50.45443848 -152.32290823 49.59636549 -151.171875 48.73828125 C-142.98224019 42.70072604 -134.47961724 37.31792698 -125.625 32.3125 C-124.91778809 31.9103125 -124.21057617 31.508125 -123.48193359 31.09375 C-100.34654164 18.0683259 -75.17537591 9.31948539 -49.1875 4 C-48.46860596 3.85264404 -47.74971191 3.70528809 -47.0090332 3.5534668 C-31.36274391 0.57960912 -15.88931954 -0.06050362 0 0 Z M-81.9375 161 C-88.43598239 170.82144718 -89.21017008 180.60746412 -89.14257812 192.07421875 C-89.14800942 193.63433482 -89.15513769 195.19444575 -89.16381836 196.75454712 C-89.18193513 200.96124154 -89.17503282 205.16754021 -89.16230202 209.37424088 C-89.15211353 213.79467009 -89.16158383 218.21506738 -89.16784668 222.63549805 C-89.17510616 230.05621367 -89.16558018 237.47676961 -89.14648438 244.89746094 C-89.12471888 253.45394661 -89.13177146 262.01005092 -89.15379 270.56652737 C-89.17199262 277.93759371 -89.17447864 285.30854584 -89.16403532 292.67962742 C-89.15782702 297.07126165 -89.15689084 301.46271714 -89.17018127 305.8543396 C-89.18181029 309.98484355 -89.17358677 314.11485997 -89.15060425 318.24531174 C-89.14535453 319.75327117 -89.14676619 321.26127226 -89.15565491 322.76921463 C-89.22119987 335.02697354 -87.56473488 346.23339287 -78.625 355.3125 C-71.97981187 360.92455908 -64.73562675 363.76493285 -56.125 364.6875 C-46.0894779 363.61226549 -38.0699755 359.05918289 -29.5 354 C-28.26112186 353.27909631 -27.02169129 352.55914123 -25.78173828 351.84008789 C-22.64764992 350.01953227 -19.52058854 348.18728254 -16.39550781 346.35131836 C-13.72583115 344.78492644 -11.05038403 343.22849341 -8.375 341.671875 C-4.45052219 339.38723591 -0.52896289 337.09770476 3.390625 334.8046875 C12.93322933 329.22820844 22.51557793 323.72038509 32.09277344 318.20361328 C35.35674327 316.32301894 38.61994189 314.44109454 41.8828125 312.55859375 C43.4918042 311.6303479 43.4918042 311.6303479 45.13330078 310.68334961 C47.28562339 309.44120108 49.43764425 308.19852956 51.58935547 306.95532227 C56.60643913 304.05763533 61.6264144 301.16546113 66.65942383 298.29553223 C68.42615824 297.28771977 70.19175502 296.2779422 71.95703125 295.26757812 C74.16053709 294.00717279 76.36611691 292.75038302 78.57421875 291.49804688 C96.10358584 281.66148807 96.10358584 281.66148807 105.90625 264.796875 C107.63921278 255.61217227 106.70281192 247.19779701 102.109375 239.07421875 C93.90776214 227.08246661 77.83693914 220.67179631 65.49609375 213.76171875 C59.47972652 210.38523499 53.51553592 206.92416606 47.5625 203.4375 C35.95564994 196.64352295 24.31106953 189.91660064 12.65722656 183.20361328 C8.30927084 180.69846117 3.96269059 178.19093123 -0.38330078 175.68237305 C-2.53449541 174.44152355 -4.68650696 173.20208916 -6.83935547 171.96411133 C-11.87759149 169.0648931 -16.90739596 166.15359431 -21.90942383 163.19238281 C-23.67334573 162.14899746 -25.43977953 161.10999939 -27.20703125 160.07226562 C-29.41785664 158.7723003 -31.62394522 157.46423061 -33.82421875 156.14648438 C-50.32575649 146.48009063 -68.67965683 144.78489357 -81.9375 161 Z " fill="#A25EF8" transform="translate(255.625,-0.3125)"/>
</svg>
