<?xml version="1.0" encoding="UTF-8"?>
<svg version="1.1" xmlns="http://www.w3.org/2000/svg" width="512" height="512">
<path d="M0 0 C1.01098045 -0.00623996 2.0219609 -0.01247993 3.06357712 -0.01890898 C6.41973941 -0.03474517 9.77516592 -0.0222713 13.1313324 -0.00964355 C15.55020061 -0.01506878 17.96906551 -0.02219369 20.38792419 -0.03088379 C26.25664379 -0.04718587 32.12517529 -0.04486078 37.99388952 -0.03323323 C42.76615557 -0.0241722 47.53836432 -0.02298639 52.31063652 -0.02732849 C52.99177313 -0.02794142 53.67290974 -0.02855436 54.37468685 -0.02918586 C55.75871168 -0.03046486 57.14273649 -0.03176171 58.52676129 -0.03307623 C71.48100161 -0.04446122 84.43512841 -0.03140065 97.38935011 -0.00987476 C108.48878511 0.0079984 119.58805275 0.00488634 130.68748474 -0.0135498 C143.59927288 -0.03498645 156.51096174 -0.04336701 169.4227652 -0.03110075 C170.80118078 -0.02982665 172.17959639 -0.02856916 173.55801201 -0.02732849 C174.23609526 -0.02671139 174.91417851 -0.02609429 175.61280974 -0.02545848 C180.37621112 -0.02201425 185.13954918 -0.02781377 189.90294075 -0.0372467 C196.32085357 -0.04967762 202.73852533 -0.04074759 209.15641022 -0.01766968 C211.50816004 -0.01239203 213.85993651 -0.01388012 216.21167564 -0.02272034 C219.42874447 -0.03369617 222.64481096 -0.01988665 225.86181641 0 C227.24846515 -0.01338433 227.24846515 -0.01338433 228.66312701 -0.02703905 C237.70440639 0.08092516 245.33733937 2.78258237 251.87742615 9.15563965 C252.36525605 9.62405934 252.85308596 10.09247904 253.35569859 10.57509327 C255.04186773 12.20412228 256.704472 13.85521838 258.36741638 15.50793457 C259.69620782 16.80914124 261.02566029 18.10967309 262.35566711 19.40963745 C266.99772905 23.96310362 271.60398549 28.55202668 276.20726013 33.14465332 C277.03952181 33.97408762 277.87178349 34.80352192 278.72926521 35.65809059 C283.12085281 40.03480111 287.50964676 44.41428926 291.89598083 48.79626465 C296.41039683 53.3051663 300.93404291 57.80468925 305.45984554 62.3021574 C308.95908578 65.78275518 312.4515818 69.27006114 315.94227791 72.75922585 C317.60748755 74.42141972 319.27518504 76.08112529 320.94546318 77.73822594 C323.27809743 80.05374217 325.60101376 82.37860909 327.92185974 84.70593262 C328.60503769 85.37989578 329.28821564 86.05385895 329.99209595 86.74824524 C337.5610335 94.38331264 342.61088579 101.99479969 342.62468529 113.07200909 C342.63113418 114.38344503 342.63758307 115.69488098 342.64422739 117.0460574 C342.64128533 118.49466915 342.63814991 119.94328052 342.63484192 121.39189148 C342.63857933 122.93603259 342.64318121 124.48017181 342.64857256 126.02430803 C342.66080704 130.26512707 342.66054156 134.50586726 342.65818381 138.74669993 C342.65777575 143.3215021 342.66881382 147.89627895 342.67829895 152.47106934 C342.69491289 161.4335735 342.70040869 170.39605137 342.70152371 179.35856964 C342.70247409 186.64475919 342.70658391 193.93094005 342.71292496 201.21712685 C342.73053923 221.87753322 342.73976366 242.53791881 342.73826401 263.19833275 C342.7381841 264.31217371 342.73810418 265.42601468 342.73802185 266.5736084 C342.73794009 267.68881051 342.73785833 268.80401263 342.73777409 269.95300875 C342.73696136 288.02240663 342.75609518 306.09172111 342.78429858 324.16109487 C342.81303309 342.71727751 342.82683853 361.27341949 342.82511103 379.82962495 C342.82444728 390.24639393 342.82993309 400.66307551 342.85146713 411.07982445 C342.86968646 419.94997853 342.87402014 428.82000561 342.86044829 437.69017031 C342.85392217 442.21408394 342.85378851 446.73775397 342.87115479 451.26164436 C342.88690657 455.40769365 342.88400055 459.55330661 342.86658652 463.69934539 C342.86352122 465.19464319 342.86713126 466.68997372 342.87830667 468.1852329 C342.97019293 481.35799597 340.67513034 491.75787381 331.36741638 501.50793457 C321.55840941 510.87192043 311.14194273 513.11329228 297.89427185 513.01586914 C296.57773054 513.0221091 295.26118923 513.02834907 293.90475273 513.03477812 C290.27939421 513.0513651 286.65446075 513.04327417 283.02910137 513.03083324 C279.10809237 513.02174109 275.18715382 513.03577302 271.26615906 513.04675293 C263.59636855 513.06449851 255.92673501 513.0607159 248.25693846 513.04910237 C242.02110733 513.04005268 235.78532006 513.03885067 229.54948425 513.04319763 C228.66048427 513.04381056 227.7714843 513.0444235 226.85554492 513.045055 C225.04931083 513.04633396 223.24307675 513.04763081 221.43684268 513.04894537 C204.51721709 513.06033956 187.59767832 513.0472557 170.67806697 513.0257439 C156.17408269 513.00787397 141.67022648 513.01097841 127.16624451 513.02941895 C110.30535081 513.05084619 93.44453312 513.05924103 76.5836277 513.04696989 C74.78420132 513.04569575 72.98477492 513.04443827 71.18534851 513.04319763 C70.3000977 513.04258053 69.41484689 513.04196343 68.5027703 513.04132763 C62.27760034 513.03788029 56.05247876 513.04368977 49.82731628 513.05311584 C42.23635399 513.06435783 34.64555705 513.06124969 27.05461359 513.03999287 C23.1848227 513.02951193 19.31530708 513.02530976 15.44551849 513.03858948 C11.24362844 513.0527903 7.04242773 513.03578457 2.84056091 513.01586914 C1.62722013 513.02479203 0.41387936 513.03371491 -0.83622932 513.04290819 C-12.65639876 512.93444656 -22.01462995 509.73490357 -30.63258362 501.50793457 C-41.41285755 490.21533079 -42.22106465 478.04073747 -42.14051819 463.17541504 C-42.14513197 461.31759592 -42.15148808 459.45978046 -42.15942717 457.60197258 C-42.17607802 452.51725381 -42.16789339 447.43283653 -42.15548229 442.34811687 C-42.14641676 436.85654883 -42.16040899 431.36503194 -42.17140198 425.87347412 C-42.1891757 415.1235742 -42.18535229 404.37378609 -42.17375141 393.62388182 C-42.16471288 384.88614708 -42.16349492 376.14844364 -42.16784668 367.41070557 C-42.16845961 366.16645935 -42.16907254 364.92221313 -42.16970405 363.64026248 C-42.17098297 361.11249239 -42.17227982 358.58472231 -42.17359442 356.05695224 C-42.1846719 333.03693854 -42.17318985 310.01697433 -42.15222403 286.99697277 C-42.13324252 265.99603679 -42.13494107 244.99519783 -42.15406799 223.9942627 C-42.17550064 200.38295302 -42.18389825 176.77168465 -42.17161894 153.16036415 C-42.17034476 150.64196397 -42.16908728 148.12356377 -42.16784668 145.60516357 C-42.16722958 144.36610665 -42.16661248 143.12704973 -42.16597667 141.85044563 C-42.16252496 133.12458802 -42.1683483 124.39876487 -42.17776489 115.6729126 C-42.18899056 105.03703071 -42.18593276 94.40126689 -42.16464192 83.7653985 C-42.15413927 78.34022938 -42.14999645 72.91525702 -42.16323853 67.49008942 C-42.17518428 62.5208128 -42.16856369 57.55191478 -42.14732832 52.58267236 C-42.14287153 50.7880701 -42.14510768 48.99343566 -42.15483147 47.19885421 C-42.22479826 33.20960472 -40.66083101 22.01277193 -30.63258362 11.50793457 C-21.83395159 3.10848433 -12.02050965 -0.11630605 0 0 Z " fill="#FED9A9" transform="translate(105.63258361816406,-0.5079345703125)"/>
<path d="M0 0 C17.24459863 2.80982278 30.49651464 21.27378337 42.28515625 33.03515625 C43.11741793 33.86459055 43.9496796 34.69402485 44.80716133 35.54859352 C49.19874892 39.92530404 53.58754288 44.30479219 57.97387695 48.68676758 C62.48829295 53.19566923 67.01193903 57.69519218 71.53774166 62.19266033 C75.0369819 65.67325811 78.52947792 69.16056407 82.02017403 72.64972878 C83.68538367 74.31192265 85.35308115 75.97162822 87.0233593 77.62872887 C89.35599355 79.9442451 91.67890988 82.26911202 93.99975586 84.59643555 C94.68293381 85.27039871 95.36611176 85.94436188 96.06999207 86.63874817 C102.70800696 93.33475944 108.32084871 100.72028636 108.7578125 110.4609375 C108.44062785 114.45746414 107.95862894 116.32660629 105.4453125 119.3984375 C101.92942722 120.57039926 98.76098405 120.54605957 95.10327148 120.54370117 C94.35811783 120.54705978 93.61296417 120.5504184 92.8452301 120.55387878 C90.37727191 120.56338983 87.90938165 120.5653325 85.44140625 120.56640625 C83.72087069 120.5696206 82.0003354 120.57298481 80.27980042 120.57649231 C76.66756559 120.58248529 73.05535468 120.58433222 69.44311523 120.58374023 C64.83567981 120.58363903 60.22839994 120.5972469 55.62100124 120.61451244 C52.06314911 120.62568931 48.50533378 120.62765764 44.9474659 120.62713051 C43.25037161 120.62830377 41.55327615 120.6326885 39.85619926 120.64046288 C24.68460457 120.7034135 11.47768451 119.94425832 -0.3671875 109.2734375 C-8.44029833 100.52109859 -11.85018051 88.89651533 -11.86108398 77.22583008 C-11.8694075 76.45240768 -11.87773102 75.67898529 -11.88630676 74.88212585 C-11.9101983 72.35235421 -11.91914932 69.82284084 -11.92578125 67.29296875 C-11.9347575 65.52276029 -11.94387952 63.75255257 -11.95314026 61.98234558 C-11.96957174 58.28484254 -11.97732073 54.58742949 -11.98022461 50.88989258 C-11.98562853 46.15513735 -12.02341566 41.42122709 -12.06896877 36.68671131 C-12.0987087 33.03640134 -12.10594736 29.38629668 -12.10695076 25.73587608 C-12.11115259 23.98995749 -12.12358548 22.24403827 -12.14446831 20.49823952 C-12.17134443 18.05914265 -12.16657212 15.62203093 -12.15405273 13.18286133 C-12.16888702 12.46534698 -12.18372131 11.74783264 -12.19900513 11.00857544 C-12.14195157 7.10253977 -11.6532884 5.51922487 -9.14881897 2.45121765 C-5.761718 -0.22905269 -4.15720627 -0.28812321 0 0 Z " fill="#FFB655" transform="translate(339.5546875,-0.3984375)"/>
<path d="M0 0 C14.87677205 11.27182046 25.29880949 25.74205655 27.97265625 44.53125 C29.60712278 61.07770126 26.83603394 75.37976219 16.6640625 88.734375 C9.51066583 97.29433843 0.98430117 104.17531926 -7.984375 110.7265625 C-8.88414062 111.38914062 -9.78390625 112.05171875 -10.7109375 112.734375 C-11.59007812 113.37632812 -12.46921875 114.01828125 -13.375 114.6796875 C-16.59009602 117.50768166 -18.47786172 120.11364056 -19.09570312 124.40991211 C-19.10279297 125.3510083 -19.10988281 126.29210449 -19.1171875 127.26171875 C-19.15005859 128.82116211 -19.15005859 128.82116211 -19.18359375 130.41210938 C-19.19261719 131.48783203 -19.20164062 132.56355469 -19.2109375 133.671875 C-19.33180875 148.02965312 -19.33180875 148.02965312 -24.2109375 153.37890625 C-28.9081539 157.03637423 -32.4337564 158.21143906 -38.29296875 158.14453125 C-43.68082429 157.23059776 -47.33082996 153.6652594 -50.4140625 149.3515625 C-52.41146417 143.7804964 -52.14305904 138.35519966 -52.0859375 132.484375 C-52.09753906 131.30746094 -52.10914063 130.13054687 -52.12109375 128.91796875 C-52.07217998 114.26014258 -47.29771971 103.0239947 -37.37890625 92.22265625 C-32.55355122 87.72228852 -27.23118096 83.86216483 -21.9296875 79.9453125 C-10.43692392 71.44921082 -10.43692392 71.44921082 -4.7109375 58.734375 C-4.00960479 50.78976999 -4.61557163 44.62437733 -8.7109375 37.734375 C-9.10023438 37.03441406 -9.48953125 36.33445313 -9.890625 35.61328125 C-14.27116731 28.75734373 -21.46612727 25.05564824 -29.25390625 23.09375 C-39.84132749 21.54519236 -47.21107397 23.49848705 -55.9609375 29.484375 C-61.54132096 33.88643048 -65.08589394 39.82793987 -66.7109375 46.734375 C-66.87298593 48.56634628 -67.01722938 50.39993697 -67.1484375 52.234375 C-67.6470981 58.36790043 -69.01305274 62.43185435 -73.7109375 66.546875 C-77.88872681 69.5931797 -81.25036552 70.20211399 -86.29296875 70.14453125 C-91.82978243 69.20533022 -95.51854969 65.37390823 -98.7109375 60.984375 C-102.58621508 48.38972286 -98.01601029 33.85095785 -92.16455078 22.52075195 C-83.07404455 6.10991117 -67.84946626 -4.19408665 -50.0078125 -9.33203125 C-33.10532465 -13.42680159 -14.40788382 -9.60525588 0 0 Z " fill="#957856" transform="translate(291.7109375,154.265625)"/>
<path d="M0 0 C4.42995484 3.15019011 8.15392011 6.83024961 9.29296875 12.3125 C9.46646935 17.20356452 8.60883642 20.89870658 5.8125 25 C1.87644039 28.96832239 -1.7491793 31.10891224 -7.375 31.4375 C-12.98971762 31.37338414 -16.34459041 28.92409782 -20.1875 25 C-23.52036219 20.31316254 -24.09177869 15.59648037 -23.1875 10 C-18.21529843 0.23975247 -10.29568976 -3.23002032 0 0 Z " fill="#977A57" transform="translate(263.1875,337)"/>
</svg>
